<svg width="60" height="57" viewBox="0 0 60 57" fill="none" xmlns="http://www.w3.org/2000/svg">
<g filter="url(#filter0_d_6447_6513)">
<g clip-path="url(#clip0_6447_6513)">
<rect x="10" y="5" width="40" height="40" rx="15" fill="#4F46E5"/>
<g filter="url(#filter1_d_6447_6513)">
<path d="M30.646 36.25C28.3753 36.25 26.3917 35.7086 24.6952 34.6259C23.0248 33.5167 21.8764 32.0246 21.25 30.1496L25.0867 28.2879C25.6348 29.5026 26.3917 30.4533 27.3574 31.14C28.3492 31.8266 29.4454 32.1699 30.646 32.1699C31.5856 32.1699 32.3294 31.9586 32.8775 31.5361C33.4256 31.1136 33.6997 30.559 33.6997 29.8724C33.6997 29.4498 33.5822 29.1065 33.3473 28.8424C33.1385 28.5519 32.8384 28.3143 32.4469 28.1294C32.0815 27.9181 31.6769 27.7465 31.2332 27.6144L27.7489 26.6241C25.948 26.096 24.5777 25.2905 23.6381 24.2077C22.7246 23.125 22.2679 21.8442 22.2679 20.3653C22.2679 19.0449 22.5941 17.8961 23.2466 16.919C23.9252 15.9155 24.8518 15.1364 26.0263 14.5819C27.2269 14.0273 28.5971 13.75 30.137 13.75C32.1467 13.75 33.9215 14.2386 35.4614 15.2157C37.0013 16.1928 38.0975 17.566 38.75 19.3354L34.835 21.1972C34.4696 20.2201 33.8563 19.441 32.995 18.86C32.1337 18.2791 31.168 17.9886 30.0979 17.9886C29.2366 17.9886 28.558 18.1866 28.0621 18.5827C27.5662 18.9789 27.3182 19.4938 27.3182 20.1276C27.3182 20.5238 27.4226 20.8671 27.6314 21.1576C27.8402 21.4481 28.1273 21.6857 28.4927 21.8706C28.8842 22.0555 29.3279 22.2271 29.8238 22.3856L33.2299 23.4155C34.9786 23.9437 36.3227 24.7359 37.2623 25.7923C38.228 26.8486 38.7108 28.1426 38.7108 29.6743C38.7108 30.9683 38.3716 32.1171 37.693 33.1206C37.0144 34.0977 36.0748 34.8636 34.8742 35.4181C33.6736 35.9727 32.2642 36.25 30.646 36.25Z" fill="white" shape-rendering="crispEdges"/>
<path d="M24.6088 34.756L24.6111 34.7576C26.3359 35.8584 28.3494 36.4062 30.646 36.4062C32.2818 36.4062 33.7145 36.1259 34.9397 35.56C36.1626 34.9951 37.1251 34.2122 37.8213 33.2097L37.8224 33.2081C38.5197 32.177 38.8671 30.9973 38.8671 29.6743C38.8671 28.107 38.3718 26.7747 37.3783 25.6876C36.4148 24.6047 35.043 23.7999 33.2751 23.2659C33.2751 23.2659 33.2751 23.2659 33.275 23.2659L29.8702 22.2364C29.3809 22.08 28.9448 21.9111 28.5614 21.7302C28.216 21.5552 27.9501 21.3332 27.7583 21.0664C27.5706 20.8053 27.4745 20.4947 27.4745 20.1276C27.4745 19.5414 27.7008 19.0714 28.1596 18.7048C28.6194 18.3376 29.2594 18.1448 30.0979 18.1448C31.1378 18.1448 32.0729 18.4265 32.9076 18.9896C33.7418 19.5523 34.3346 20.3051 34.6887 21.2519L34.7483 21.4114L34.9021 21.3383L38.8171 19.4765L38.946 19.4152L38.8966 19.2813C38.2327 17.481 37.115 16.0799 35.5451 15.0837C33.9777 14.0891 32.1732 13.5938 30.137 13.5938C28.5782 13.5938 27.185 13.8745 25.9608 14.44L25.9608 14.44L25.9596 14.4406C24.7616 15.0062 23.8126 15.8031 23.1172 16.8315L23.1172 16.8315L23.1167 16.8322C22.445 17.8382 22.1116 19.018 22.1116 20.3653C22.1116 21.8793 22.5803 23.1963 23.5187 24.3085L23.5187 24.3085L23.5201 24.3102C24.4846 25.4215 25.884 26.24 27.7049 26.7741L27.7062 26.7744L31.1887 27.7642C31.1889 27.7643 31.1892 27.7644 31.1895 27.7645C31.6223 27.8933 32.0151 28.0602 32.3687 28.2647L32.3684 28.2651L32.3802 28.2707C32.7527 28.4466 33.0301 28.6688 33.2204 28.9336L33.2252 28.9402L33.2306 28.9463C33.4352 29.1764 33.5434 29.4802 33.5434 29.8724C33.5434 30.5101 33.2922 31.0191 32.7821 31.4123C32.2697 31.8074 31.5633 32.0136 30.646 32.0136C29.4776 32.0136 28.4127 31.6803 27.4471 31.012C26.5071 30.3435 25.7671 29.416 25.2291 28.2236L25.163 28.0771L25.0185 28.1473L21.1818 30.0091L21.0583 30.069L21.1018 30.1992C21.7394 32.1077 22.9098 33.6279 24.6088 34.756Z" stroke="url(#paint0_linear_6447_6513)" stroke-width="0.3125" shape-rendering="crispEdges"/>
</g>
</g>
<rect x="10.3125" y="5.3125" width="39.375" height="39.375" rx="14.6875" stroke="white" stroke-opacity="0.32" stroke-width="0.625"/>
</g>
<defs>
<filter id="filter0_d_6447_6513" x="0" y="0" width="60" height="60" filterUnits="userSpaceOnUse" color-interpolation-filters="sRGB">
<feFlood flood-opacity="0" result="BackgroundImageFix"/>
<feColorMatrix in="SourceAlpha" type="matrix" values="0 0 0 0 0 0 0 0 0 0 0 0 0 0 0 0 0 0 127 0" result="hardAlpha"/>
<feOffset dy="5"/>
<feGaussianBlur stdDeviation="5"/>
<feComposite in2="hardAlpha" operator="out"/>
<feColorMatrix type="matrix" values="0 0 0 0 0.309804 0 0 0 0 0.27451 0 0 0 0 0.898039 0 0 0 0.1 0"/>
<feBlend mode="normal" in2="BackgroundImageFix" result="effect1_dropShadow_6447_6513"/>
<feBlend mode="normal" in="SourceGraphic" in2="effect1_dropShadow_6447_6513" result="shape"/>
</filter>
<filter id="filter1_d_6447_6513" x="10.8667" y="8.4375" width="38.2751" height="43.125" filterUnits="userSpaceOnUse" color-interpolation-filters="sRGB">
<feFlood flood-opacity="0" result="BackgroundImageFix"/>
<feColorMatrix in="SourceAlpha" type="matrix" values="0 0 0 0 0 0 0 0 0 0 0 0 0 0 0 0 0 0 127 0" result="hardAlpha"/>
<feOffset dy="5"/>
<feGaussianBlur stdDeviation="5"/>
<feComposite in2="hardAlpha" operator="out"/>
<feColorMatrix type="matrix" values="0 0 0 0 0 0 0 0 0 0 0 0 0 0 0 0 0 0 0.32 0"/>
<feBlend mode="normal" in2="BackgroundImageFix" result="effect1_dropShadow_6447_6513"/>
<feBlend mode="normal" in="SourceGraphic" in2="effect1_dropShadow_6447_6513" result="shape"/>
</filter>
<linearGradient id="paint0_linear_6447_6513" x1="30" y1="13.75" x2="30" y2="36.25" gradientUnits="userSpaceOnUse">
<stop stop-color="white"/>
<stop offset="1" stop-color="white" stop-opacity="0"/>
</linearGradient>
<clipPath id="clip0_6447_6513">
<rect x="10" y="5" width="40" height="40" rx="15" fill="white"/>
</clipPath>
</defs>
</svg>
