<svg width="40" height="40" viewBox="0 0 40 40" fill="none" xmlns="http://www.w3.org/2000/svg">
<g filter="url(#filter0_b_6447_6515)">
<rect width="40" height="40" rx="20" fill="white" fill-opacity="0.16"/>
<rect x="0.5" y="0.5" width="39" height="39" rx="19.5" stroke="white" stroke-opacity="0.32"/>
<path d="M29.7629 28.2373L29.7626 28.2377L29.7679 28.2417L29.769 28.2425C29.8682 28.3423 29.9469 28.4605 30.0008 28.5905C30.0551 28.7216 30.083 28.862 30.083 29.0039C30.083 29.1457 30.0551 29.2862 30.0008 29.4172C29.9465 29.5482 29.867 29.6673 29.7667 29.7676C29.6664 29.8679 29.5473 29.9474 29.4163 30.0017C29.2852 30.056 29.1448 30.0839 29.0029 30.0839C28.8611 30.0839 28.7206 30.056 28.5896 30.0017C28.4586 29.9474 28.3395 29.8679 28.2392 29.7676L23.7833 25.3107L23.7542 25.2816L23.7216 25.3067C21.9915 26.6343 19.8211 27.2542 17.6508 27.0405C15.4805 26.8268 13.4727 25.7955 12.0347 24.1559C10.5968 22.5163 9.83634 20.3912 9.90768 18.2115C9.97901 16.0318 10.8768 13.9609 12.4189 12.4189C13.9609 10.8768 16.0318 9.97901 18.2115 9.90768C20.3912 9.83634 22.5163 10.5968 24.1559 12.0347C25.7955 13.4727 26.8268 15.4805 27.0405 17.6508C27.2542 19.8211 26.6343 21.9915 25.3067 23.7216L25.2817 23.7542L25.3107 23.7833L29.7629 28.2373ZM12.0782 18.5001V18.5002C12.08 20.2028 12.7571 21.8352 13.9611 23.0391C15.165 24.2431 16.7974 24.9202 18.5001 24.922H18.5001C19.7702 24.922 21.0118 24.5454 22.0679 23.8397C23.124 23.1341 23.9471 22.1311 24.4332 20.9577C24.9192 19.7842 25.0464 18.493 24.7986 17.2473C24.5508 16.0015 23.9392 14.8573 23.0411 13.9592C22.143 13.061 20.9987 12.4494 19.753 12.2016C18.5072 11.9538 17.216 12.081 16.0426 12.5671C14.8691 13.0531 13.8662 13.8762 13.1605 14.9323C12.4549 15.9884 12.0782 17.23 12.0782 18.5001Z" fill="white" stroke="white" stroke-width="0.09375"/>
</g>
<defs>
<filter id="filter0_b_6447_6515" x="-16" y="-16" width="72" height="72" filterUnits="userSpaceOnUse" color-interpolation-filters="sRGB">
<feFlood flood-opacity="0" result="BackgroundImageFix"/>
<feGaussianBlur in="BackgroundImageFix" stdDeviation="8"/>
<feComposite in2="SourceAlpha" operator="in" result="effect1_backgroundBlur_6447_6515"/>
<feBlend mode="normal" in="SourceGraphic" in2="effect1_backgroundBlur_6447_6515" result="shape"/>
</filter>
</defs>
</svg>
    