<svg width="52" height="14" viewBox="0 0 52 14" fill="none" xmlns="http://www.w3.org/2000/svg">
<path d="M4.23233 13.375C3.20423 13.375 2.3075 13.1429 1.54214 12.6786C0.788206 12.2033 0.274159 11.5678 0 10.7719L1.88484 9.90978C2.12473 10.3961 2.45029 10.7775 2.86153 11.0538C3.27277 11.3301 3.7297 11.4683 4.23233 11.4683C4.59787 11.4683 4.87774 11.3965 5.07194 11.2528C5.26613 11.1091 5.36323 10.9101 5.36323 10.6559C5.36323 10.5232 5.32896 10.4127 5.26042 10.3243C5.19188 10.2248 5.08907 10.1364 4.95199 10.059C4.81491 9.98163 4.64356 9.91531 4.43794 9.86004L2.8444 9.42897C2.07904 9.21895 1.49074 8.88183 1.0795 8.41759C0.668262 7.94229 0.462643 7.3841 0.462643 6.74301C0.462643 6.17929 0.611146 5.68742 0.908151 5.26739C1.20516 4.84737 1.62211 4.52129 2.159 4.28917C2.69589 4.046 3.31275 3.92441 4.00957 3.92441C4.92343 3.92441 5.72306 4.13443 6.40846 4.55445C7.10528 4.96343 7.59648 5.54373 7.88206 6.29535L5.98009 7.15751C5.84301 6.7817 5.5917 6.48326 5.22615 6.26219C4.87203 6.03007 4.4665 5.91401 4.00957 5.91401C3.6783 5.91401 3.41556 5.98033 3.22137 6.11297C3.03859 6.24561 2.94721 6.42799 2.94721 6.66011C2.94721 6.7817 2.98148 6.89223 3.05002 6.99171C3.11856 7.09119 3.22708 7.17962 3.37558 7.25699C3.53551 7.33436 3.7297 7.40621 3.95817 7.47253L5.4489 7.90361C6.22569 8.12467 6.8197 8.4618 7.23094 8.91499C7.64217 9.35712 7.84779 9.90426 7.84779 10.5564C7.84779 11.1201 7.69358 11.612 7.38515 12.032C7.08815 12.452 6.6712 12.7836 6.1343 13.0268C5.59741 13.2589 4.96342 13.375 4.23233 13.375Z" fill="white"/>
<path d="M12.0056 13.2755C10.8632 13.2755 10.0236 13.0379 9.48672 12.5626C8.96125 12.0762 8.69852 11.3191 8.69852 10.2911V0.625H11.2688V10.1087C11.2688 10.783 11.6457 11.1201 12.3997 11.1201H12.4682V13.2755H12.0056Z" fill="white"/>
<path d="M17.844 13.375C16.9187 13.375 16.0734 13.1705 15.308 12.7615C14.5541 12.3526 13.9487 11.7944 13.4917 11.087C13.0462 10.3685 12.8235 9.55608 12.8235 8.64971C12.8235 7.73228 13.0462 6.91986 13.4917 6.21245C13.9487 5.50504 14.5541 4.94685 15.308 4.53787C16.0734 4.1289 16.9187 3.92441 17.844 3.92441C18.7693 3.92441 19.6089 4.1289 20.3628 4.53787C21.1168 4.94685 21.7165 5.50504 22.162 6.21245C22.6189 6.91986 22.8474 7.73228 22.8474 8.64971C22.8474 9.55608 22.6189 10.3685 22.162 11.087C21.7165 11.7944 21.1168 12.3526 20.3628 12.7615C19.6089 13.1705 18.7693 13.375 17.844 13.375ZM17.844 11.1367C18.3124 11.1367 18.7179 11.0317 19.0606 10.8217C19.4147 10.6117 19.6889 10.3188 19.8831 9.94295C20.0887 9.56713 20.1915 9.13605 20.1915 8.64971C20.1915 8.16336 20.0887 7.73781 19.8831 7.37305C19.6889 6.99724 19.4147 6.70432 19.0606 6.49431C18.7179 6.27324 18.3124 6.16271 17.844 6.16271C17.3757 6.16271 16.9644 6.27324 16.6103 6.49431C16.2562 6.70432 15.9763 6.99724 15.7707 7.37305C15.5765 7.73781 15.4794 8.16336 15.4794 8.64971C15.4794 9.13605 15.5765 9.56713 15.7707 9.94295C15.9763 10.3188 16.2562 10.6117 16.6103 10.8217C16.9644 11.0317 17.3757 11.1367 17.844 11.1367Z" fill="white"/>
<path d="M28.0153 13.2755C26.8844 13.2755 26.0048 12.9826 25.3765 12.3968C24.7597 11.7999 24.4513 10.9709 24.4513 9.90978V6.27877H22.8749V4.12337H22.9605C23.4403 4.12337 23.8058 4.00731 24.0572 3.77519C24.3199 3.54308 24.4513 3.1949 24.4513 2.73066V2.06746H27.0215V4.12337H29.2148V6.27877H27.0215V9.74399C27.0215 10.0535 27.0786 10.3132 27.1928 10.5232C27.3071 10.7222 27.4841 10.8714 27.724 10.9709C27.9639 11.0704 28.2609 11.1201 28.615 11.1201C28.695 11.1201 28.7864 11.1146 28.8892 11.1035C28.992 11.0925 29.1005 11.0814 29.2148 11.0704V13.176C29.0434 13.1981 28.8492 13.2203 28.6322 13.2424C28.4151 13.2645 28.2095 13.2755 28.0153 13.2755Z" fill="white"/>
<path d="M30.0355 13.176V0.625H32.6057V4.12337H34.4735C35.3302 4.12337 36.067 4.26707 36.6839 4.55445C37.3007 4.84184 37.7748 5.25081 38.1061 5.78137C38.4373 6.31193 38.603 6.94197 38.603 7.67149V13.176H36.0327V7.80413C36.0327 7.33989 35.8899 6.9696 35.6044 6.69327C35.3188 6.41694 34.9418 6.27877 34.4735 6.27877H32.6057V13.176H30.0355Z" fill="white"/>
<path d="M43.7029 13.375C42.8461 13.375 42.0979 13.2147 41.4582 12.8942C40.8185 12.5736 40.3159 12.126 39.9503 11.5512C39.5962 10.9764 39.4192 10.3077 39.4192 9.54503V4.12337H41.9894V9.49529C41.9894 9.82689 42.0579 10.1143 42.195 10.3574C42.3435 10.6006 42.5491 10.794 42.8119 10.9377C43.0746 11.0704 43.3716 11.1367 43.7029 11.1367C44.0456 11.1367 44.3426 11.0704 44.5939 10.9377C44.8566 10.794 45.0565 10.6006 45.1936 10.3574C45.3421 10.1143 45.4164 9.82689 45.4164 9.49529V4.12337H47.9866V9.54503C47.9866 10.3077 47.8038 10.9764 47.4383 11.5512C47.0842 12.126 46.5873 12.5736 45.9476 12.8942C45.3079 13.2147 44.5596 13.375 43.7029 13.375Z" fill="white"/>
<path d="M49.1798 13.176V4.12337H51.75V13.176H49.1798ZM49.1798 3.31096V0.823959H51.75V3.31096H49.1798Z" fill="white"/>
</svg>
