<svg width="121" height="56" viewBox="0 0 121 56" fill="none" xmlns="http://www.w3.org/2000/svg">
<rect width="121" height="56" rx="28" fill="white"/>
<path d="M46.5 28C46.5006 28.2546 46.4353 28.5051 46.3105 28.727C46.1856 28.949 46.0055 29.1348 45.7875 29.2665L32.28 37.5297C32.0523 37.6691 31.7914 37.7452 31.5244 37.7502C31.2575 37.7551 30.994 37.6887 30.7613 37.5578C30.5307 37.4289 30.3387 37.2409 30.2049 37.0132C30.0711 36.7855 30.0004 36.5263 30 36.2622V19.7378C30.0004 19.4737 30.0711 19.2144 30.2049 18.9867C30.3387 18.759 30.5307 18.5711 30.7613 18.4422C30.994 18.3112 31.2575 18.2448 31.5244 18.2498C31.7914 18.2547 32.0523 18.3308 32.28 18.4703L45.7875 26.7334C46.0055 26.8651 46.1856 27.051 46.3105 27.2729C46.4353 27.4949 46.5006 27.7453 46.5 28Z" fill="#1E293B"/>
<path d="M61.296 35V21.59H66.3C67.212 21.59 68.016 21.758 68.712 22.094C69.42 22.418 69.972 22.898 70.368 23.534C70.764 24.158 70.962 24.92 70.962 25.82C70.962 26.708 70.758 27.47 70.35 28.106C69.954 28.73 69.408 29.21 68.712 29.546C68.016 29.882 67.212 30.05 66.3 30.05H63.744V35H61.296ZM63.744 27.89H66.336C66.78 27.89 67.164 27.806 67.488 27.638C67.812 27.458 68.064 27.212 68.244 26.9C68.424 26.588 68.514 26.228 68.514 25.82C68.514 25.4 68.424 25.04 68.244 24.74C68.064 24.428 67.812 24.188 67.488 24.02C67.164 23.84 66.78 23.75 66.336 23.75H63.744V27.89ZM72.6259 35V21.374H74.9839V35H72.6259ZM79.987 35.216C79.303 35.216 78.709 35.102 78.205 34.874C77.701 34.646 77.311 34.322 77.035 33.902C76.759 33.47 76.621 32.972 76.621 32.408C76.621 31.868 76.741 31.388 76.981 30.968C77.221 30.536 77.593 30.176 78.097 29.888C78.601 29.6 79.237 29.396 80.005 29.276L83.209 28.754V30.554L80.455 31.022C79.987 31.106 79.639 31.256 79.411 31.472C79.183 31.688 79.069 31.97 79.069 32.318C79.069 32.654 79.195 32.924 79.447 33.128C79.711 33.32 80.035 33.416 80.419 33.416C80.911 33.416 81.343 33.314 81.715 33.11C82.099 32.894 82.393 32.6 82.597 32.228C82.813 31.856 82.921 31.448 82.921 31.004V28.484C82.921 28.064 82.753 27.716 82.417 27.44C82.093 27.152 81.661 27.008 81.121 27.008C80.617 27.008 80.167 27.146 79.771 27.422C79.387 27.686 79.105 28.04 78.925 28.484L76.999 27.548C77.191 27.032 77.491 26.588 77.899 26.216C78.319 25.832 78.811 25.532 79.375 25.316C79.939 25.1 80.551 24.992 81.211 24.992C82.015 24.992 82.723 25.142 83.335 25.442C83.947 25.73 84.421 26.138 84.757 26.666C85.105 27.182 85.279 27.788 85.279 28.484V35H83.047V33.326L83.551 33.29C83.299 33.71 82.999 34.064 82.651 34.352C82.303 34.628 81.907 34.844 81.463 35C81.019 35.144 80.527 35.216 79.987 35.216ZM88.5024 38.96C88.2384 38.96 87.9804 38.936 87.7284 38.888C87.4764 38.852 87.2484 38.78 87.0444 38.672V36.71C87.2004 36.746 87.3864 36.782 87.6024 36.818C87.8304 36.854 88.0404 36.872 88.2324 36.872C88.7724 36.872 89.1624 36.746 89.4024 36.494C89.6544 36.254 89.8764 35.93 90.0684 35.522L90.7164 34.01L90.6804 35.99L86.4144 25.208H88.9524L91.9404 33.164H91.0404L94.0104 25.208H96.5664L92.3004 35.99C92.0484 36.614 91.7424 37.148 91.3824 37.592C91.0224 38.036 90.6024 38.372 90.1224 38.6C89.6544 38.84 89.1144 38.96 88.5024 38.96Z" fill="#1E293B"/>
</svg>
