<svg width="455" height="72" viewBox="0 0 455 72" fill="none" xmlns="http://www.w3.org/2000/svg">
<path d="M0 0.404722H1.90267C2.33449 1.75379 3.04968 2.71164 4.04824 3.27825C5.34368 4.03373 7.44877 4.41147 10.3635 4.41147C12.2257 4.41147 18.1361 4.2226 28.0948 3.84486C34.1132 3.60202 37.8646 3.48061 39.3489 3.48061C43.829 3.48061 47.6343 4.24958 50.765 5.78752C53.9226 7.32546 56.4865 9.68634 58.4566 12.8702C60.4268 16.054 61.7357 20.4384 62.3834 26.0236C62.8422 29.9359 63.2336 38.5565 63.5574 51.8853C58.2947 55.204 54.2465 58.0776 51.4127 60.5059C42.8304 58.1046 35.2602 56.9039 28.7021 56.9039C24.249 56.9039 20.1198 57.4435 16.3144 58.5228C12.5091 59.575 8.47432 61.2749 4.21017 63.6223L3.03618 62.0843C8.56878 59.2243 13.4267 56.2968 17.6099 53.3019C21.793 50.3069 24.5459 47.6358 25.8683 45.2884C27.2177 42.914 27.8924 39.9056 27.8924 36.2631C27.8924 34.941 27.8654 32.9848 27.8114 30.3946C27.7575 28.5868 27.7305 26.7116 27.7305 24.769C27.7305 21.3423 27.9194 18.8196 28.2972 17.2007C28.7021 15.5818 29.5387 13.7201 30.8071 11.6155H29.7546C26.462 13.5042 24.2625 15.231 23.156 16.796C22.0764 18.3339 21.5367 20.3035 21.5367 22.7049L21.8605 37.0725C21.8605 40.9039 20.7135 44.344 18.4195 47.3929C16.1255 50.4148 10.6199 54.7858 1.90267 60.5059L0.728684 58.9275C5.12778 55.8516 8.02902 53.3288 9.43241 51.3592C10.8358 49.3895 11.5375 47.3255 11.5375 45.167C11.5375 43.3052 10.9438 41.7268 9.75627 40.4317C8.56878 39.1096 7.25985 38.4486 5.82947 38.4486C5.10079 38.4486 4.42608 38.6509 3.80535 39.0556C3.18462 39.4604 2.34798 40.2968 1.29544 41.5649L0 40.2698C0.917602 37.9494 2.13208 36.2496 3.64342 35.1703C5.18175 34.0911 7.01696 33.5514 9.14903 33.5514C9.76976 33.5514 10.4445 33.6189 11.1732 33.7538C11.9288 33.8887 12.7385 34.0911 13.6021 34.3609C13.5481 32.796 13.5211 31.4334 13.5211 30.2732C13.5211 26.0371 14.3713 22.597 16.0715 19.9528C17.7988 17.2816 21.0914 14.5025 25.9492 11.6155C21.4962 12.0742 17.6503 12.3035 14.4117 12.3035C10.9842 12.3035 8.04251 11.8179 5.58658 10.8465C3.75137 10.0911 2.40196 8.89039 1.53833 7.24452C0.674707 5.57167 0.16193 3.29174 0 0.404722ZM32.7908 11.6155C31.6303 13.5852 30.8476 15.2985 30.4428 16.7555C29.903 18.7521 29.6331 20.6138 29.6331 22.3406L29.957 38.2867C29.957 40.3373 29.4442 42.4283 28.4187 44.5599C27.636 46.1518 26.1652 48.0944 24.0061 50.3879C27.9464 49.7403 30.9556 49.43 33.0337 49.457L35.3412 49.4975V11.6155H32.7908ZM37.4058 27.1568C39.0521 28.317 40.4824 29.113 41.6969 29.5447C42.9384 29.9764 44.2743 30.1922 45.7047 30.1922C47.1351 30.1922 48.471 29.9764 49.7124 29.5447C50.9539 29.086 52.4113 28.2901 54.0845 27.1568C53.5718 21.086 52.0064 16.9848 49.3886 14.8533C46.7707 12.6948 42.7764 11.6155 37.4058 11.6155V27.1568ZM37.4058 40.5126C39.241 39.4604 40.8063 38.7454 42.1017 38.3676C43.3972 37.9629 44.8141 37.7605 46.3524 37.7605C47.8368 37.7605 49.2132 37.9494 50.4816 38.3272C51.7501 38.6779 53.2749 39.3524 55.0561 40.3508L54.3679 29.3828C52.6407 30.4351 51.1428 31.1636 49.8744 31.5683C48.6329 31.946 47.27 32.1349 45.7856 32.1349C44.3553 32.1349 42.9384 31.9056 41.535 31.4469C40.1316 30.9882 38.7552 30.3002 37.4058 29.3828V40.5126ZM37.4058 49.6189C40.6983 49.8887 43.3702 50.226 45.4213 50.6307C47.4994 51.0084 50.738 51.8179 55.1371 53.059C55.1911 48.9848 55.2181 46.8803 55.2181 46.7454C55.2181 46.4216 55.1911 45.1265 55.1371 42.86C53.4098 41.6729 51.885 40.8499 50.5626 40.3912C49.2671 39.9325 47.8502 39.7032 46.3119 39.7032C44.7466 39.7032 43.2892 39.9325 41.9398 40.3912C40.6174 40.8499 39.106 41.6729 37.4058 42.86V49.6189Z" fill="white"/>
<path d="M83.9654 17.3626L95.3815 30.6779L77.2454 43.3862V50.7521L86.6373 54.4755L92.993 50.145L93.8836 51.3592L80.7673 60.5059C78.0955 59.0759 75.8959 58.0506 74.1687 57.43C72.4414 56.8094 69.9855 56.1619 66.8009 55.4874V54.4755C67.7185 53.9359 68.3257 53.2749 68.6226 52.4924C68.9465 51.683 69.1084 49.9562 69.1084 47.312V24.1619C71.6453 23.2445 73.7504 22.4081 75.4236 21.6526C76.6381 21.086 79.4854 19.656 83.9654 17.3626ZM77.8121 22.0169L77.2454 22.3002V40.6341L87.8922 33.1872L77.8121 22.0169Z" fill="white"/>
<path d="M147.811 19.7099L148.985 20.8027C147.447 22.1518 146.408 23.231 145.868 24.0405C145.355 24.8499 145.018 25.6594 144.856 26.4688C144.694 27.2782 144.613 28.9376 144.613 31.4469V48.2833C144.613 50.4958 144.842 51.9663 145.301 52.6948C145.76 53.4233 146.192 53.7875 146.597 53.7875C147.163 53.7875 148.148 53.2479 149.552 52.1686L150.483 53.3423L141.496 60.5059C139.499 58.941 138.203 57.6459 137.61 56.6206C136.746 55.1096 136.314 53.5042 136.314 51.8044V27.3997L132.225 23.8786L125.748 29.8685V51.8044L128.825 55.0826L121.74 60.5059L114.575 55.0826L117.53 51.8044V31.6897C117.53 29.3423 117.355 27.8314 117.004 27.1568C116.518 26.2395 115.344 25.1467 113.482 23.8786L107.086 29.2614V51.8044L110.203 55.0826L103.078 60.5059L95.8317 55.0826L98.9893 51.8044V30.1518C98.9893 27.9123 98.6789 26.2934 98.0582 25.2951C97.5724 24.5396 97.1271 24.1619 96.7223 24.1619C96.2365 24.1619 95.2514 24.715 93.7671 25.8212L92.8764 24.4857L101.702 17.3626C103.537 18.6577 104.778 19.7234 105.426 20.5599C106.101 21.3693 106.573 22.2597 106.843 23.231C107.005 23.9325 107.086 25.3221 107.086 27.3997L119.15 17.3626C121.794 19.4671 123.522 21.2074 124.331 22.5835C125.141 23.9595 125.613 25.7133 125.748 27.8449L137.124 17.3626L143.763 23.5548L147.811 19.7099Z" fill="white"/>
<path d="M179.109 23.2715V53.5447C175.061 55.1906 172.132 56.5396 170.324 57.5919C168.948 58.3744 167.625 59.3457 166.357 60.5059C162.444 58.1315 159.205 56.4857 156.641 55.5683C154.698 54.8668 152.498 54.4621 150.043 54.3541L149.638 53.5447C150.663 52.6813 151.311 51.8988 151.581 51.1973C151.959 50.2799 152.148 48.7285 152.148 46.543V24.3238C157.086 22.6779 161.31 20.3575 164.819 17.3626C168.651 19.8988 173.414 21.8685 179.109 23.2715ZM160.325 49.6189L170.891 53.9494V28.2091C167.571 26.6712 165.223 25.6594 163.847 25.1737C162.875 24.8229 161.701 24.5261 160.325 24.2833V49.6189Z" fill="white"/>
<path d="M206.763 17.3626L213.402 23.5548L217.329 19.7504L218.463 20.8432C216.574 22.57 215.427 23.8786 215.022 24.769C214.482 25.9562 214.212 27.5885 214.212 29.6661V48.8904C214.212 50.6712 214.495 51.9933 215.062 52.8567C215.413 53.4233 215.804 53.7066 216.236 53.7066C216.614 53.7066 217.505 53.1804 218.908 52.1282L219.88 53.3828L211.176 60.5059C208.936 58.8061 207.492 57.3086 206.844 56.0135C206.223 54.6914 205.913 52.5734 205.913 49.6594V27.3592L201.501 23.5548L194.942 28.7757V51.8044L197.857 54.7184L190.692 60.5059L183.486 54.7184L186.643 51.8044V31.1231C186.643 28.1821 186.347 26.199 185.753 25.1737C185.348 24.4722 184.889 24.1214 184.376 24.1214C183.837 24.1214 183.027 24.5396 181.948 25.3761L180.976 24.2428L189.599 17.3626C191.974 19.0354 193.458 20.3575 194.052 21.3288C194.646 22.3002 194.942 23.6492 194.942 25.3761V26.7521L206.763 17.3626Z" fill="white"/>
<path d="M230.005 3.52108H235.146L229.56 12.2631H227.94L230.005 3.52108ZM226.928 17.3626L234.134 23.312L230.936 26.4283V48.4452C230.936 50.7656 231.152 52.2766 231.584 52.9781C232.016 53.6796 232.461 54.0304 232.92 54.0304C233.244 54.0304 233.541 53.9629 233.81 53.828C234.188 53.6391 234.971 53.0995 236.158 52.2091L237.13 53.4637L227.94 60.5059C225.781 58.968 224.391 57.5245 223.771 56.1754C223.15 54.7993 222.84 52.4115 222.84 49.0118V26.4283L219.803 23.312L226.928 17.3626Z" fill="white"/>
<path d="M250.737 17.3626L261.262 23.3524L256.971 29.7066L249.037 25.1332V50.914L256.971 54.516L261.262 51.4806L261.667 53.1804L251.628 60.5059C249.037 59.0489 246.824 57.9831 244.988 57.3086C243.153 56.6071 240.9 56 238.228 55.4874V54.516C239.172 53.8685 239.793 53.1669 240.09 52.4115C240.522 51.3592 240.738 49.7133 240.738 47.4739V24.4452C244.111 22.9073 247.444 20.5464 250.737 17.3626Z" fill="white"/>
<path d="M299.69 0L318.028 6.1113L319.364 3.72344C319.85 2.86003 320.188 2.3339 320.376 2.14503C320.592 1.92917 320.835 1.82125 321.105 1.82125C321.375 1.82125 321.591 1.91568 321.753 2.10455C321.942 2.29342 322.036 2.50927 322.036 2.75211C322.036 3.12985 321.712 3.87184 321.065 4.97808L312.523 19.7504L319.202 19.5076C321.308 19.4266 323.75 19.7234 326.53 20.398C329.337 21.0725 331.738 22.1248 333.736 23.5548C335.76 24.9578 337.339 26.6307 338.472 28.5734C339.633 30.489 340.213 32.6071 340.213 34.9275C340.213 39.1906 338.418 43.3862 334.829 47.5143C331.266 51.6155 324.91 55.946 315.761 60.5059C312.604 59.2108 308.933 57.8482 304.75 56.4182C297.032 60.1147 290.73 61.9629 285.845 61.9629C282.363 61.9629 279.678 61.2074 277.789 59.6965C275.927 58.1585 274.996 56.3912 274.996 54.3946C274.996 52.2631 276.129 50.3204 278.396 48.5666C280.663 46.7858 284.023 45.8954 288.476 45.8954C290.23 45.8954 292.417 46.0843 295.034 46.4621L298.071 40.9578L292.363 41.2007C290.959 41.2277 289.07 41.0388 286.695 40.6341C284.32 40.2024 282.363 39.5143 280.825 38.57C279.314 37.6256 278.18 36.4654 277.425 35.0894C276.669 33.7133 276.291 32.2698 276.291 30.7589C276.291 28.3575 277.141 26.226 278.841 24.3643C279.921 23.1771 281.702 22.1113 284.185 21.1669L284.145 20.6813C284.145 18.172 285.251 15.2985 287.464 12.0607C289.704 8.79595 293.779 4.77572 299.69 0ZM314.345 12.5868C310.107 10.4823 306.801 9.07926 304.426 8.37774C302.051 7.64924 299.96 7.28499 298.152 7.28499C295.615 7.28499 293.55 8 291.958 9.43002C290.365 10.86 289.569 12.5329 289.569 14.4486C289.569 16.3373 290.244 17.8887 291.593 19.1029C292.97 20.317 295.034 20.9241 297.787 20.9241C299.622 20.9241 303.752 20.5868 310.175 19.9123L314.345 12.5868ZM305.722 27.602C302.24 28.0337 298.867 28.2496 295.601 28.2496C291.931 28.2496 289.326 27.8179 287.788 26.9545C286.25 26.0911 285.103 24.742 284.347 22.9073C282.404 24.1484 281.432 25.6863 281.432 27.5211C281.432 29.1939 282.188 30.57 283.699 31.6492C285.696 33.0523 289.11 33.7538 293.941 33.7538C296.181 33.7538 299.029 33.6054 302.483 33.3086L305.722 27.602ZM304.75 33.1467C311.2 32.4182 315.68 32.054 318.19 32.054C321.618 32.054 324.236 32.8364 326.044 34.4013C327.852 35.9393 328.756 37.7875 328.756 39.946C328.756 41.8347 327.866 43.6695 326.084 45.4503C324.33 47.231 320.619 49.3491 314.952 51.8044L322.967 54.2732C326.503 52.0877 329.229 49.7268 331.145 47.1906C333.061 44.6543 334.019 41.8617 334.019 38.8128C334.019 36.8162 333.412 34.86 332.197 32.9444C331.01 31.0017 329.175 29.4637 326.692 28.3305C324.209 27.1703 321.348 26.5902 318.109 26.5902C315.492 26.5902 312.145 26.86 308.07 27.3997L304.75 33.1467ZM296.897 46.7858C299.568 47.3255 301.741 47.8246 303.414 48.2833C305.115 48.742 308.124 49.6594 312.442 51.0354C318.433 48.2293 321.429 45.4368 321.429 42.6577C321.429 41.7943 321.038 41.0118 320.255 40.3103C319.499 39.6088 318.528 39.258 317.34 39.258C315.883 39.258 314.088 39.4199 311.956 39.7437C306.019 40.5531 302.119 40.9578 300.257 40.9578L296.897 46.7858ZM302.038 55.5683C295.129 53.4907 289.529 52.4519 285.238 52.4519C283.025 52.4519 281.27 52.9376 279.975 53.9089C279.084 54.5565 278.639 55.3524 278.639 56.2968C278.639 57.2951 279.084 58.0911 279.975 58.6847C281.378 59.656 283.416 60.1417 286.088 60.1417C290.19 60.1417 295.507 58.6172 302.038 55.5683Z" fill="white"/>
<path d="M359.042 2.50927V3.56155C356.91 4.66779 355.399 6.03035 354.508 7.64924C353.644 9.24115 353.213 11.6695 353.213 14.9342V50.914L357.828 54.3541L359.609 52.8971L360.621 54.3541L352.524 60.5059C350.068 58.3744 348.233 56.9578 347.019 56.2563C345.804 55.5548 344.198 54.9207 342.201 54.3541V53.4637C342.957 53.0051 343.537 52.425 343.942 51.7234C344.374 51.0219 344.671 50.199 344.833 49.2546C344.887 48.9309 344.927 47.312 344.954 44.398V15.5008C344.954 13.0455 344.86 11.3457 344.671 10.4013C344.482 9.43002 344.104 8.51265 343.537 7.64924C342.971 6.75885 342.012 5.77403 340.663 4.69477L341.311 3.88533C343.767 4.58685 345.966 6.01686 347.909 8.17538C349.933 6.04385 351.755 4.58685 353.374 3.80438C355.021 3.02192 356.91 2.59022 359.042 2.50927Z" fill="white"/>
<path d="M388.801 19.1029L390.259 19.6695C388.801 21.9359 387.87 23.6762 387.466 24.8904C387.088 26.0776 386.899 27.6965 386.899 29.747V46.9882C386.899 49.8482 387.115 51.6425 387.547 52.371C388.005 53.0725 388.545 53.4233 389.166 53.4233C389.49 53.4233 389.827 53.3423 390.178 53.1804C390.394 53.0455 391.028 52.5599 392.081 51.7234L392.971 53.059L383.944 60.5059C381.865 58.887 380.476 57.4435 379.774 56.1754C379.072 54.8803 378.681 53.086 378.6 50.7926L366.293 60.5059C361.678 56.7285 359.371 53.0051 359.371 49.3356C359.371 46.8803 359.87 44.5734 360.869 42.4148C362.191 39.5818 364.472 36.2766 367.71 32.4992L362.852 22.1383L363.419 21.0051C364.472 21.113 365.254 21.1669 365.767 21.1669C368.952 21.1669 371.758 19.8988 374.187 17.3626C376.157 18.5228 378.303 19.4536 380.624 20.1551C382.972 20.8567 384.767 21.2074 386.008 21.2074C386.575 21.2074 387.007 21.113 387.304 20.9241C387.6 20.7083 388.1 20.1012 388.801 19.1029ZM378.6 26.8331L364.755 22.5835L369.694 33.0253L378.6 37.1939V26.8331ZM378.6 38.8533L368.803 34.2799C367.292 37.5717 366.536 40.4587 366.536 42.941C366.536 47.312 368.52 50.914 372.487 53.7471L378.6 48.8094V38.8533Z" fill="white"/>
<path d="M413.096 32.3777L422.447 37.2749V54.3137C420.18 54.5295 418.129 55.0826 416.294 55.973C414.459 56.8634 412.381 58.3744 410.06 60.5059C408.062 59.3187 406.322 58.4958 404.837 58.0371C403.38 57.5784 401.828 57.3491 400.182 57.3491C397.645 57.3491 395.391 58.118 393.421 59.656C392.693 60.2226 392.166 60.5059 391.842 60.5059C391.546 60.5059 391.249 60.3575 390.952 60.0607C390.655 59.7639 390.507 59.4671 390.507 59.1703C390.507 58.8465 390.79 58.4148 391.357 57.8752C391.681 57.5514 392.234 56.9309 393.017 56.0135L396.7 51.4401L401.923 44.5194L393.057 39.7437V24.6476C395.837 23.7841 398.009 22.8263 399.575 21.774C401.167 20.6948 402.692 19.2243 404.149 17.3626C407.604 18.8196 410.383 19.8449 412.489 20.4384C414 20.8432 415.444 21.0455 416.82 21.0455C418.332 21.0455 419.506 20.7218 420.342 20.0742C421.179 19.3997 421.597 18.6981 421.597 17.9696C421.597 17.484 421.327 16.9983 420.787 16.5126C419.735 15.5683 419.209 14.6509 419.209 13.7605C419.209 12.9241 419.438 12.2631 419.897 11.7774C420.356 11.2648 420.868 11.0084 421.435 11.0084C422.191 11.0084 422.866 11.3592 423.459 12.0607C424.08 12.7352 424.39 13.6391 424.39 14.7723C424.39 15.9325 424.148 17.0658 423.662 18.172C423.176 19.2782 422.245 20.7083 420.868 22.4621L413.096 32.3777ZM401.234 35.1703L406.781 38.0438L415.606 26.3069C413.797 26.8196 412.232 27.0759 410.91 27.0759C407.59 27.0759 404.365 25.9696 401.234 23.7572V35.1703ZM408.197 38.8533L398.441 51.9258C399.629 51.5211 400.735 51.2243 401.761 51.0354C402.786 50.8465 403.717 50.7521 404.554 50.7521C407.658 50.7521 410.883 51.7774 414.229 53.828V42.0911L408.197 38.8533Z" fill="white"/>
<path d="M440.629 2.50927L441.034 3.48061C439.117 4.72175 437.808 6.04384 437.107 7.44688C436.405 8.84992 436.054 11.0759 436.054 14.1248V27.3187L448.563 17.3626C451.235 19.0894 452.976 20.7622 453.786 22.3811C454.595 23.973 455 26.6981 455 30.5565V48.8904C455 52.398 454.636 54.9612 453.907 56.5801C452.746 59.2243 450.601 61.7066 447.47 64.027C443.368 67.1029 438.146 69.7605 431.804 72L431.237 70.5025C436.392 68.371 439.981 66.4283 442.005 64.6745C444.029 62.9207 445.352 61.059 445.972 59.0894C446.431 57.6054 446.661 53.7471 446.661 47.5143V30.5565C446.661 28.6678 446.472 27.3592 446.094 26.6307C445.527 25.6324 444.488 24.6476 442.977 23.6762L436.054 29.3019V51.8449L438.928 54.7184L431.804 60.5059L424.598 54.7184L427.796 51.5211V14.6914C427.796 11.3457 427.499 9.05228 426.905 7.81113C426.311 6.56998 425.137 5.45025 423.383 4.45194L423.829 3.48061C425.259 3.88533 426.406 4.34401 427.27 4.85666C428.133 5.34233 429.267 6.20573 430.67 7.44688C432.316 5.88196 433.895 4.73524 435.406 4.00675C436.918 3.27825 438.659 2.77909 440.629 2.50927Z" fill="white"/>
</svg>
