<svg width="48" height="48" viewBox="-13 -12 48 48" fill="none" xmlns="http://www.w3.org/2000/svg">
<path d="M20.7629 19.2373L20.7626 19.2377L20.7679 19.2417L20.769 19.2425C20.8682 19.3423 20.9469 19.4605 21.0008 19.5905C21.0551 19.7216 21.083 19.862 21.083 20.0039C21.083 20.1457 21.0551 20.2862 21.0008 20.4172C20.9465 20.5482 20.867 20.6673 20.7667 20.7676C20.6664 20.8679 20.5473 20.9474 20.4163 21.0017C20.2852 21.056 20.1448 21.0839 20.0029 21.0839C19.8611 21.0839 19.7206 21.056 19.5896 21.0017C19.4586 20.9474 19.3395 20.8679 19.2392 20.7676L14.7833 16.3107L14.7542 16.2816L14.7216 16.3067C12.9915 17.6343 10.8211 18.2542 8.65078 18.0405C6.48045 17.8268 4.47267 16.7955 3.03472 15.1559C1.59678 13.5163 0.836342 11.3912 0.907677 9.2115C0.979012 7.03184 1.87677 4.96093 3.41885 3.41885C4.96093 1.87677 7.03184 0.979012 9.2115 0.907677C11.3912 0.836342 13.5163 1.59678 15.1559 3.03472C16.7955 4.47267 17.8268 6.48045 18.0405 8.65078C18.2542 10.8211 17.6343 12.9915 16.3067 14.7216L16.2817 14.7542L16.3107 14.7833L20.7629 19.2373ZM3.07824 9.50012V9.50016C3.07999 11.2028 3.75714 12.8352 4.96108 14.0391C6.16503 15.2431 7.79743 15.9202 9.50007 15.922H9.50012C10.7702 15.922 12.0118 15.5454 13.0679 14.8397C14.124 14.1341 14.9471 13.1311 15.4332 11.9577C15.9192 10.7842 16.0464 9.49299 15.7986 8.24727C15.5508 7.00155 14.9392 5.85728 14.0411 4.95916C13.143 4.06105 11.9987 3.44942 10.753 3.20164C9.50724 2.95385 8.21601 3.08102 7.04257 3.56708C5.86913 4.05313 4.86617 4.87624 4.16052 5.93231C3.45488 6.98838 3.07824 8.22999 3.07824 9.50012Z" fill="white" stroke="white" stroke-width="0.09375"/>
</svg>
