<!DOCTYPE svg PUBLIC "-//W3C//DTD SVG 1.1//EN" "http://www.w3.org/Graphics/SVG/1.1/DTD/svg11.dtd">
<!-- Uploaded to: SVG Repo, www.svgrepo.com, Transformed by: SVG Repo Mixer Tools -->
<svg version="1.1" id="Layer_1" xmlns="http://www.w3.org/2000/svg" xmlns:xlink="http://www.w3.org/1999/xlink" viewBox="0 0 512 512" xml:space="preserve" width="75px" height="75px" fill="#000000">
<g id="SVGRepo_bgCarrier" stroke-width="0"/>
<g id="SVGRepo_tracerCarrier" stroke-linecap="round" stroke-linejoin="round"/>
<g id="SVGRepo_iconCarrier"> <path style="fill:#E8E8E8;" d="M415.2,512H96.8c-15.368-0.04-27.824-12.496-27.864-27.864V27.864C68.976,12.496,81.432,0.04,96.8,0 h318.4c15.368,0.04,27.824,12.496,27.864,27.864v456.272C443.024,499.504,430.568,511.96,415.2,512z"/> <rect x="87.688" y="35.68" width="336.64" height="420.632"/> <circle style="fill:#AAAAAA;" cx="256" cy="17.792" r="7.104"/> <g style="opacity:0.15;"> <polygon style="fill:#FFFFFF;" points="87.688,190.36 87.688,35.68 271.464,35.68 "/> </g> <circle style="fill:#AAAAAA;" cx="254.056" cy="484.16" r="20.36"/> <path style="fill:#FFFFFF;" d="M254.056,493.928c-5.416,0-9.8-4.384-9.8-9.8s4.384-9.8,9.8-9.8s9.8,4.384,9.8,9.8l0,0 C263.848,489.536,259.464,493.92,254.056,493.928z M254.056,477.176c-3.84,0-6.952,3.112-6.952,6.952s3.112,6.952,6.952,6.952 c3.84,0,6.952-3.112,6.952-6.952l0,0C261,480.288,257.896,477.184,254.056,477.176z"/> </g>
</svg>