<?xml version="1.0" encoding="iso-8859-1"?>
<!-- Uploaded to: SVG Repo, www.svgrepo.com, Generator: SVG Repo Mixer Tools -->
<svg version="1.1" id="Layer_1" xmlns="http://www.w3.org/2000/svg" xmlns:xlink="http://www.w3.org/1999/xlink" 
	 viewBox="0 0 512 512" xml:space="preserve">
<rect x="186.811" y="76.108" style="fill:#947859;" width="138.378" height="83.027"/>
<rect x="256" y="76.108" style="fill:#80684C;" width="69.189" height="83.027"/>
<ellipse style="fill:#F2B3D8;" cx="256" cy="76.108" rx="69.189" ry="76.108"/>
<path style="fill:#E592BF;" d="M256,0v152.216c38.212,0,69.189-34.074,69.189-76.108S294.212,0,256,0z"/>
<path style="fill:#F2F2F4;" d="M347.609,152.216H164.391c-12.119,0-23.632,5.296-31.52,14.497L62.27,249.081l55.351,41.514
	l41.514-41.514v69.189h193.73v-69.189l41.514,41.514l55.351-41.514l-70.601-82.368C371.242,157.512,359.728,152.216,347.609,152.216
	z"/>
<path style="fill:#A58868;" d="M228.324,27.676c0,28.203,42.088,51.43,96.599,54.889c0.163-2.13,0.266-4.28,0.266-6.457
	C325.189,34.074,294.212,0,256,0s-69.189,34.074-69.189,76.108c0,6.166,0.684,12.152,1.941,17.894
	C211.644,85.518,228.324,59.061,228.324,27.676z"/>
<path style="fill:#947859;" d="M256,0v64.292c17.349,9.822,41.57,16.536,68.924,18.273c0.163-2.13,0.266-4.28,0.266-6.457
	C325.189,34.074,294.212,0,256,0z"/>
<path style="fill:#DFDFE1;" d="M379.129,166.713c-7.888-9.201-19.401-14.497-31.52-14.497H256V318.27h96.865v-69.189l41.514,41.514
	l55.351-41.514L379.129,166.713z"/>
<path style="fill:#F2B3D8;" d="M166.054,442.811v34.595c0,19.027,15.568,34.595,34.595,34.595s34.595-15.568,34.595-34.595v-34.595
	H166.054z"/>
<path style="fill:#E592BF;" d="M276.757,442.811v34.595c0,19.027,15.568,34.595,34.595,34.595c19.027,0,34.595-15.568,34.595-34.595
	v-34.595H276.757z"/>
<polygon style="fill:#7AB9E8;" points="159.135,304.432 117.622,456.649 394.378,456.649 352.865,304.432 "/>
<polygon style="fill:#579ADF;" points="256,456.649 394.378,456.649 352.865,304.432 256,304.432 "/>
</svg>