<!DOCTYPE svg PUBLIC "-//W3C//DTD SVG 1.1//EN" "http://www.w3.org/Graphics/SVG/1.1/DTD/svg11.dtd">
<!-- Uploaded to: SVG Repo, www.svgrepo.com, Transformed by: SVG Repo Mixer Tools -->
<svg version="1.1" id="Layer_1" xmlns="http://www.w3.org/2000/svg" xmlns:xlink="http://www.w3.org/1999/xlink" viewBox="0 0 512.00 512.00" xml:space="preserve" width="151px" height="151px" fill="#000000" transform="rotate(0)matrix(1, 0, 0, 1, 0, 0)">
<g id="SVGRepo_bgCarrier" stroke-width="0"/>
<g id="SVGRepo_tracerCarrier" stroke-linecap="round" stroke-linejoin="round" stroke="#CCCCCC" stroke-width="1.024"/>
<g id="SVGRepo_iconCarrier"> <rect y="69.78" style="fill:#AAAAAA;" width="512" height="314.96"/> <rect x="14.744" y="81.308" width="482.48" height="291.912"/> <polygon points="135.728,409.284 105.8,409.284 95,384.74 124.92,384.74 "/> <polygon points="376.272,409.284 406.2,409.284 417,384.74 387.08,384.74 "/> <rect x="73.4" y="432.572" width="365.208" height="9.648"/> <rect x="122.624" y="401.372" width="274" height="7.896"/> <g> <polygon style="fill:#A2A9AA;" points="135.728,409.284 105.8,409.284 73.4,432.596 103.32,432.596 "/> <polygon style="fill:#A2A9AA;" points="376.272,409.284 406.2,409.284 438.6,432.596 408.68,432.596 "/> </g> <g style="opacity:0.15;"> <polygon style="fill:#FFFFFF;" points="14.744,228.164 14.744,81.308 189.232,81.308 "/> </g> </g>
</svg>