<svg width="18" height="24" viewBox="0 0 18 24" fill="none" xmlns="http://www.w3.org/2000/svg">
<path d="M17.5521 11.0146L17.5521 11.0147C17.5909 11.1862 17.5871 11.3647 17.541 11.5344C17.495 11.7042 17.4081 11.8601 17.288 11.9886L17.288 11.9886L6.78797 23.2386L6.78795 23.2386C6.63082 23.4072 6.4238 23.521 6.19726 23.5634C5.97072 23.6057 5.73657 23.5743 5.52917 23.4738C5.32176 23.3733 5.15202 23.209 5.04483 23.005C4.93764 22.801 4.89865 22.568 4.93358 22.3402L4.9336 22.34L5.92641 15.7175L5.93191 15.6808L5.89746 15.6671L1.09935 13.748C0.936657 13.6829 0.792294 13.579 0.678768 13.4455C0.565243 13.312 0.485977 13.1528 0.447837 12.9818C0.409697 12.8107 0.413832 12.6329 0.459884 12.4638C0.505936 12.2947 0.592517 12.1394 0.712127 12.0113L0.712135 12.0113L11.2121 0.761311L11.2122 0.761286C11.3693 0.59269 11.5763 0.478882 11.8028 0.436554C12.0294 0.394226 12.2635 0.425607 12.4709 0.526093C12.6783 0.626579 12.8481 0.790882 12.9553 0.994902C13.0625 1.19892 13.1015 1.43192 13.0665 1.65972L13.0665 1.65987L12.0737 8.27956L12.0682 8.31626L12.1026 8.33004L16.9008 10.2491C16.9008 10.2491 16.9008 10.2491 16.9008 10.2491C17.0633 10.3142 17.2076 10.4179 17.3211 10.5513C17.4346 10.6847 17.5139 10.8437 17.5521 11.0146ZM7.6037 19.0758L7.58128 19.2251L7.68432 19.1147L14.5899 11.716L14.6367 11.6659L14.5731 11.6405L10.4743 10.0008C10.2488 9.91059 10.0604 9.74688 9.93959 9.5362C9.81876 9.32552 9.7726 9.08021 9.8086 8.84002L10.3964 4.9241L10.4188 4.77476L10.3158 4.88516L3.41016 12.2839L3.36343 12.334L3.42702 12.3594L7.52577 13.9991C7.75126 14.0893 7.93969 14.253 8.06052 14.4637C8.18135 14.6744 8.22751 14.9197 8.19151 15.1599C8.19151 15.1599 8.19151 15.1599 8.19151 15.1599L7.6037 19.0758Z" fill="#CBD5E1" stroke="#CBD5E1" stroke-width="0.09375"/>
</svg>
