<svg width="20" height="21" viewBox="0 0 20 21" fill="none" xmlns="http://www.w3.org/2000/svg">
<path d="M15.5781 1.625V1.67188H15.625H17.5C17.9848 1.67188 18.4498 1.86448 18.7927 2.20732C19.1355 2.55016 19.3281 3.01515 19.3281 3.5V18.5C19.3281 18.9848 19.1355 19.4498 18.7927 19.7927C18.4498 20.1355 17.9848 20.3281 17.5 20.3281H2.5C2.01515 20.3281 1.55016 20.1355 1.20732 19.7927C0.86448 19.4498 0.671875 18.9848 0.671875 18.5V3.5C0.671875 3.01515 0.86448 2.55016 1.20732 2.20732C1.55016 1.86448 2.01515 1.67188 2.5 1.67188H4.375H4.42188V1.625V1.25C4.42188 0.964063 4.53546 0.689838 4.73765 0.487651C4.93984 0.285463 5.21406 0.171875 5.5 0.171875C5.78594 0.171875 6.06016 0.285463 6.26235 0.487651C6.46454 0.689838 6.57812 0.964063 6.57812 1.25V1.625V1.67188H6.625H13.375H13.4219V1.625V1.25C13.4219 0.964064 13.5355 0.689838 13.7377 0.487651C13.9398 0.285463 14.2141 0.171875 14.5 0.171875C14.7859 0.171875 15.0602 0.285463 15.2623 0.48765C15.4645 0.689838 15.5781 0.964064 15.5781 1.25V1.625ZM4.42188 3.875V3.82812H4.375H2.875H2.82812V3.875V6.125V6.17188H2.875H17.125H17.1719V6.125V3.875V3.82812H17.125H15.625H15.5781V3.875C15.5781 4.16094 15.4645 4.43516 15.2623 4.63735C15.0602 4.83954 14.7859 4.95312 14.5 4.95312C14.2141 4.95312 13.9398 4.83954 13.7377 4.63735C13.5355 4.43516 13.4219 4.16094 13.4219 3.875V3.82812H13.375H6.625H6.57812V3.875C6.57812 4.16094 6.46454 4.43516 6.26235 4.63735C6.06016 4.83954 5.78594 4.95312 5.5 4.95312C5.21406 4.95312 4.93984 4.83954 4.73765 4.63735C4.53546 4.43516 4.42188 4.16094 4.42188 3.875ZM2.82812 18.125V18.1719H2.875H17.125H17.1719V18.125V8.375V8.32812H17.125H2.875H2.82812V8.375V18.125Z" fill="#CBD5E1" stroke="#CBD5E1" stroke-width="0.09375"/>
</svg>
