<svg width="20" height="21" viewBox="0 0 20 21" fill="none" xmlns="http://www.w3.org/2000/svg">
<path d="M18.7925 8.95663L18.7926 8.95673C18.963 9.12611 19.0981 9.32763 19.19 9.54961C19.282 9.7716 19.3289 10.0096 19.3281 10.2499V10.25V19.25C19.3281 19.536 19.2145 19.8102 19.0124 20.0124C18.8102 20.2146 18.5359 20.3282 18.25 20.3282H1.75001C1.46407 20.3282 1.18985 20.2146 0.98766 20.0124C0.785472 19.8102 0.671885 19.536 0.671885 19.25L0.671885 10.25L0.671884 10.2499C0.671113 10.0096 0.718055 9.7716 0.809987 9.54962C0.901918 9.32763 1.03701 9.12611 1.20743 8.95673L1.20753 8.95663L8.70752 1.45664C8.70753 1.45664 8.70753 1.45663 8.70753 1.45663C9.05035 1.11391 9.51526 0.921387 10 0.921387C10.4848 0.921387 10.9497 1.11391 11.2925 1.45663C11.2925 1.45663 11.2925 1.45664 11.2925 1.45664L18.7925 8.95663ZM17.125 18.1719H17.1719V18.125V10.4047V10.3853L17.1582 10.3716L10.0332 3.24659L10 3.21345L9.96686 3.24659L2.84186 10.3716L2.82813 10.3853V10.4047V18.125V18.1719H2.87501H17.125Z" fill="white" stroke="white" stroke-width="0.09375"/>
</svg>
