<svg width="32" height="30" viewBox="0 0 32 30" fill="none" xmlns="http://www.w3.org/2000/svg">
<g filter="url(#filter0_d_5007_284)">
<path d="M16.5168 23C14.7002 23 13.1133 22.5669 11.7562 21.7007C10.4198 20.8134 9.50112 19.6197 9 18.1197L12.0694 16.6303C12.5078 17.6021 13.1133 18.3627 13.8859 18.912C14.6793 19.4613 15.5563 19.7359 16.5168 19.7359C17.2685 19.7359 17.8635 19.5669 18.302 19.2289C18.7405 18.8908 18.9597 18.4472 18.9597 17.8979C18.9597 17.5599 18.8658 17.2852 18.6779 17.0739C18.5108 16.8415 18.2707 16.6514 17.9575 16.5035C17.6652 16.3345 17.3415 16.1972 16.9866 16.0915L14.1991 15.2993C12.7584 14.8768 11.6622 14.2324 10.9105 13.3662C10.1797 12.5 9.81432 11.4754 9.81432 10.2923C9.81432 9.23592 10.0753 8.3169 10.5973 7.53521C11.1402 6.7324 11.8814 6.10916 12.821 5.66549C13.7815 5.22183 14.8777 5 16.1096 5C17.7174 5 19.1372 5.39085 20.3691 6.17254C21.601 6.95423 22.478 8.05282 23 9.46831L19.868 10.9577C19.5757 10.1761 19.085 9.55282 18.396 9.08803C17.7069 8.62324 16.9344 8.39085 16.0783 8.39085C15.3893 8.39085 14.8464 8.5493 14.4497 8.8662C14.0529 9.1831 13.8546 9.59507 13.8546 10.1021C13.8546 10.419 13.9381 10.6937 14.1051 10.9261C14.2722 11.1585 14.5019 11.3486 14.7942 11.4965C15.1074 11.6444 15.4623 11.7817 15.8591 11.9085L18.5839 12.7324C19.9828 13.1549 21.0582 13.7887 21.8098 14.6338C22.5824 15.4789 22.9687 16.5141 22.9687 17.7394C22.9687 18.7746 22.6972 19.6937 22.1544 20.4965C21.6115 21.2782 20.8598 21.8908 19.8993 22.3345C18.9389 22.7782 17.8113 23 16.5168 23Z" fill="#4F46E5" shape-rendering="crispEdges"/>
<path d="M11.687 21.8049L11.6889 21.8061C13.0687 22.6867 14.6795 23.125 16.5168 23.125C17.8255 23.125 18.9716 22.9007 19.9517 22.448C20.9301 21.9961 21.7001 21.3697 22.257 20.5678L22.2579 20.5665C22.8157 19.7416 23.0937 18.7978 23.0937 17.7394C23.0937 16.4856 22.6975 15.4198 21.9027 14.5501C21.1318 13.6837 20.0344 13.0399 18.6201 12.6127C18.6201 12.6127 18.62 12.6127 18.62 12.6127L15.8962 11.7891C15.5047 11.664 15.1558 11.5289 14.8491 11.3842C14.5728 11.2441 14.3601 11.0666 14.2066 10.8531C14.0565 10.6442 13.9796 10.3958 13.9796 10.1021C13.9796 9.63314 14.1606 9.25708 14.5277 8.96386C14.8955 8.67006 15.4075 8.51585 16.0783 8.51585C16.9103 8.51585 17.6583 8.74124 18.3261 9.19166C18.9934 9.64183 19.4677 10.2441 19.7509 11.0015L19.7986 11.1291L19.9217 11.0706L23.0537 9.5812L23.1568 9.53217L23.1173 9.42506C22.5861 7.98479 21.692 6.8639 20.4361 6.06699C19.1821 5.27131 17.7386 4.875 16.1096 4.875C14.8626 4.875 13.748 5.09961 12.7686 5.55202L12.7686 5.55201L12.7677 5.55246C11.8093 6.00498 11.0501 6.64245 10.4938 7.46519L10.4934 7.46579C9.95598 8.27052 9.68932 9.21437 9.68932 10.2923C9.68932 11.5034 10.0643 12.557 10.815 13.4468L10.815 13.4468L10.8161 13.4481C11.5876 14.3372 12.7072 14.992 14.1639 15.4192L14.1649 15.4195L16.9509 16.2114C16.9512 16.2114 16.9514 16.2115 16.9517 16.2116C17.2979 16.3147 17.6121 16.4482 17.8949 16.6117L17.8947 16.6121L17.9041 16.6166C18.2021 16.7573 18.424 16.935 18.5764 17.1469L18.5758 17.1473L18.5845 17.157C18.7482 17.3411 18.8347 17.5842 18.8347 17.8979C18.8347 18.4081 18.6338 18.8153 18.2257 19.1299C17.8157 19.4459 17.2506 19.6109 16.5168 19.6109C15.5821 19.6109 14.7302 19.3442 13.9577 18.8096C13.2057 18.2748 12.6137 17.5328 12.1833 16.5789L12.1304 16.4617L12.0148 16.5178L8.94543 18.0073L8.84665 18.0552L8.88144 18.1593C9.39152 19.6861 10.3279 20.9023 11.687 21.8049Z" stroke="url(#paint0_linear_5007_284)" stroke-width="0.25" shape-rendering="crispEdges"/>
</g>
<defs>
<filter id="filter0_d_5007_284" x="0.693359" y="0.75" width="30.6201" height="34.5" filterUnits="userSpaceOnUse" color-interpolation-filters="sRGB">
<feFlood flood-opacity="0" result="BackgroundImageFix"/>
<feColorMatrix in="SourceAlpha" type="matrix" values="0 0 0 0 0 0 0 0 0 0 0 0 0 0 0 0 0 0 127 0" result="hardAlpha"/>
<feOffset dy="4"/>
<feGaussianBlur stdDeviation="4"/>
<feComposite in2="hardAlpha" operator="out"/>
<feColorMatrix type="matrix" values="0 0 0 0 0.388235 0 0 0 0 0.4 0 0 0 0 0.945098 0 0 0 0.24 0"/>
<feBlend mode="normal" in2="BackgroundImageFix" result="effect1_dropShadow_5007_284"/>
<feBlend mode="normal" in="SourceGraphic" in2="effect1_dropShadow_5007_284" result="shape"/>
</filter>
<linearGradient id="paint0_linear_5007_284" x1="16" y1="5" x2="16" y2="23" gradientUnits="userSpaceOnUse">
<stop stop-color="#4F46E5"/>
<stop offset="1" stop-color="#4F46E5" stop-opacity="0"/>
</linearGradient>
</defs>
</svg>
