<svg width="20" height="22" viewBox="0 0 20 22" fill="none" xmlns="http://www.w3.org/2000/svg">
<path d="M2.50003 17.375H17.5C17.8294 17.377 18.1534 17.2913 18.4387 17.1265C18.7239 16.9617 18.9601 16.7239 19.1228 16.4375L2.50003 17.375ZM0.921483 14.5795L0.921488 14.5795C1.74093 13.17 2.1719 11.1527 2.1719 8.75C2.1719 6.67385 2.99665 4.68274 4.46471 3.21468C5.93276 1.74662 7.92388 0.921875 10 0.921875C12.0762 0.921875 14.0673 1.74662 15.5353 3.21468C17.0034 4.68274 17.8281 6.67385 17.8282 8.75C17.8282 11.1517 18.261 13.1699 19.0804 14.5794C19.2416 14.8582 19.3266 15.1745 19.327 15.4965C19.3273 15.8186 19.2429 16.135 19.0822 16.4141L19.0821 16.4143C18.9234 16.6935 18.6932 16.9253 18.4152 17.0859C18.1372 17.2465 17.8214 17.3301 17.5003 17.3281H17.5L2.50003 17.3281L2.49966 17.3281C2.17813 17.3306 1.86176 17.2472 1.58321 17.0866C1.30467 16.9259 1.07405 16.6939 0.915153 16.4143L0.915084 16.4142C0.755116 16.1347 0.671495 15.818 0.672619 15.496C0.673742 15.174 0.759569 14.8579 0.921483 14.5795ZM3.08234 15.1043L3.04912 15.1719H3.1244H16.8747H16.95L16.9168 15.1043C16.0912 13.4251 15.6719 11.2887 15.6719 8.75C15.6719 7.24573 15.0743 5.80306 14.0106 4.73938C12.947 3.6757 11.5043 3.07812 10 3.07812C8.49575 3.07812 7.05309 3.6757 5.98941 4.73938C4.92572 5.80306 4.32815 7.24573 4.32815 8.75C4.32815 11.2896 3.90795 13.4251 3.08234 15.1043ZM14.0782 20C14.0782 20.2859 13.9646 20.5602 13.7624 20.7623C13.5602 20.9645 13.286 21.0781 13 21.0781H7.00003C6.71409 21.0781 6.43986 20.9645 6.23768 20.7623C6.03549 20.5602 5.9219 20.2859 5.9219 20C5.9219 19.7141 6.03549 19.4398 6.23768 19.2377C6.43986 19.0355 6.71409 18.9219 7.00003 18.9219H13C13.286 18.9219 13.5602 19.0355 13.7624 19.2377C13.9646 19.4398 14.0782 19.7141 14.0782 20Z" fill="#CBD5E1" stroke="#CBD5E1" stroke-width="0.09375"/>
</svg>
