<svg width="22" height="19" viewBox="0 0 22 19" fill="none" xmlns="http://www.w3.org/2000/svg">
<path d="M19.5781 16.375V16.4219H19.625H20C20.2859 16.4219 20.5602 16.5355 20.7623 16.7377C20.9645 16.9398 21.0781 17.2141 21.0781 17.5C21.0781 17.7859 20.9645 18.0602 20.7623 18.2623C20.5602 18.4645 20.2859 18.5781 20 18.5781H2C1.71406 18.5781 1.43984 18.4645 1.23765 18.2623C1.03546 18.0602 0.921875 17.7859 0.921875 17.5C0.921875 17.2141 1.03546 16.9398 1.23765 16.7377C1.43984 16.5355 1.71406 16.4219 2 16.4219H2.375H2.42188V16.375V10.75C2.42188 10.4641 2.53546 10.1898 2.73765 9.98765C2.93984 9.78546 3.21406 9.67188 3.5 9.67188H6.875H6.92188V9.625V6.25C6.92188 5.96406 7.03546 5.68984 7.23765 5.48765C7.43984 5.28546 7.71406 5.17188 8 5.17188H12.125H12.1719V5.125V1.75C12.1719 1.46406 12.2855 1.18984 12.4877 0.987651C12.6898 0.785463 12.9641 0.671875 13.25 0.671875H18.5C18.7859 0.671875 19.0602 0.785463 19.2623 0.98765C19.4645 1.18984 19.5781 1.46406 19.5781 1.75V16.375ZM14.375 2.82812H14.3281V2.875V16.375V16.4219H14.375H17.375H17.4219V16.375V2.875V2.82812H17.375H14.375ZM9.125 7.32812H9.07812V7.375V16.375V16.4219H9.125H12.125H12.1719V16.375V7.375V7.32812H12.125H9.125ZM4.625 11.8281H4.57812V11.875V16.375V16.4219H4.625H6.875H6.92188V16.375V11.875V11.8281H6.875H4.625Z" fill="#CBD5E1" stroke="#CBD5E1" stroke-width="0.09375"/>
</svg>
