<svg width="22" height="22" viewBox="0 0 22 22" fill="none" xmlns="http://www.w3.org/2000/svg">
<path d="M21.1019 8.26017L21.1018 8.26008L18.4965 6.77415L18.4729 6.76071L18.4728 6.73359L18.4625 3.79828C18.462 3.64221 18.4275 3.48811 18.3616 3.34664C18.2957 3.20517 18.1998 3.0797 18.0807 2.9789L18.1109 2.94312L18.0807 2.9789C17.0353 2.09443 15.8316 1.41626 14.5335 0.980366L14.5335 0.980345C14.3909 0.93227 14.2399 0.914549 14.0902 0.92832C13.9404 0.942091 13.7951 0.98705 13.6638 1.06031L11.0229 2.53498L11 2.54775L10.9771 2.53497L8.33621 1.05935L8.33617 1.05933C8.20463 0.985668 8.05911 0.940414 7.909 0.926486C7.75889 0.912558 7.60752 0.930267 7.46468 0.978468L7.46467 0.978473C6.16618 1.41618 4.96252 2.09625 3.91752 2.98261L3.91751 2.98262C3.79874 3.08331 3.70319 3.20852 3.63743 3.34966C3.57167 3.49079 3.53726 3.6445 3.53657 3.8002L3.52344 6.73833L3.52332 6.76543L3.49977 6.77884L0.898211 8.26103L0.898141 8.26107C0.763295 8.33759 0.646538 8.44229 0.555835 8.56803C0.465133 8.69378 0.402618 8.8376 0.372555 8.98971L0.372547 8.98974C0.108891 10.3179 0.108891 11.6849 0.372547 13.0131C0.402852 13.1648 0.465473 13.3083 0.556155 13.4337C0.646847 13.5591 0.763479 13.6635 0.898123 13.7398L0.898211 13.7399L3.50634 15.2258L3.52991 15.2393L3.53001 15.2664L3.54032 18.2017C3.54086 18.3578 3.57529 18.5119 3.64121 18.6533C3.70714 18.7948 3.80299 18.9203 3.92215 19.0211L3.89188 19.0569L3.92216 19.0211C4.96753 19.9056 6.17119 20.5837 7.4693 21.0196L7.46936 21.0196C7.61189 21.0677 7.76289 21.0854 7.91267 21.0717C8.06243 21.0579 8.20766 21.0129 8.33901 20.9397L21.1019 8.26017ZM21.1019 8.26017C21.2367 8.3364 21.3536 8.44078 21.4444 8.5662C21.5353 8.69162 21.598 8.83515 21.6284 8.98701C21.8927 10.315 21.8933 11.682 21.6303 13.0103L21.6303 13.0103C21.6002 13.1624 21.5377 13.3062 21.447 13.4319C21.3563 13.5577 21.2395 13.6624 21.1047 13.7389L21.1047 13.7389L18.4975 15.2211L18.4739 15.2345L18.4738 15.2617L18.4606 18.1998C18.4599 18.3555 18.4255 18.5092 18.3598 18.6503C18.294 18.7915 18.1985 18.9167 18.0797 19.0174L18.11 19.0531L18.0797 19.0174C17.0347 19.9037 15.831 20.5838 14.5325 21.0215L14.5475 21.0659L14.5325 21.0215C14.3897 21.0697 14.2383 21.0874 14.0882 21.0735C13.9381 21.0596 13.7926 21.0143 13.661 20.9407L13.661 20.9406L11.0229 19.465L11 19.4522L10.9771 19.465L8.33905 20.9397L21.1019 8.26017ZM19.5962 12.1177L19.576 12.1292L17.056 13.5617L17.0559 13.5617C16.8845 13.6589 16.7431 13.8015 16.6474 13.9738C16.5961 14.0688 16.542 14.1569 16.4867 14.246L16.4866 14.2461C16.3801 14.4161 16.3232 14.6125 16.3222 14.813L16.3091 17.6565L16.309 17.6797L16.2904 17.6937C15.6806 18.1526 15.0128 18.5288 14.3043 18.8126L14.2835 18.8209L14.264 18.81L11.7187 17.3859L11.7187 17.3859C11.5578 17.2958 11.3765 17.2485 11.1922 17.2484H11.165H11.1644H11.1638H11.1631H11.1625H11.1619H11.1612H11.1606H11.16H11.1594H11.1587H11.1581H11.1575H11.1569H11.1562H11.1556H11.155H11.1544H11.1537H11.1531H11.1525H11.1518H11.1512H11.1506H11.15H11.1493H11.1487H11.1481H11.1475H11.1468H11.1462H11.1456H11.1449H11.1443H11.1437H11.1431H11.1424H11.1418H11.1412H11.1406H11.1399H11.1393H11.1387H11.138H11.1374H11.1368H11.1362H11.1355H11.1349H11.1343H11.1336H11.133H11.1324H11.1318H11.1311H11.1305H11.1299H11.1292H11.1286H11.128H11.1274H11.1267H11.1261H11.1255H11.1248H11.1242H11.1236H11.123H11.1223H11.1217H11.1211H11.1204H11.1198H11.1192H11.1186H11.1179H11.1173H11.1167H11.116H11.1154H11.1148H11.1142H11.1135H11.1129H11.1123H11.1116H11.111H11.1104H11.1098H11.1091H11.1085H11.1079H11.1072H11.1066H11.106H11.1053H11.1047H11.1041H11.1035H11.1028H11.1022H11.1016H11.1009H11.1003H11.0997H11.099H11.0984H11.0978H11.0972H11.0965H11.0959H11.0953H11.0946H11.094H11.0934H11.0927H11.0921H11.0915H11.0909H11.0902H11.0896H11.089H11.0883H11.0877H11.0871H11.0864H11.0858H11.0852H11.0846H11.0839H11.0833H11.0827H11.082H11.0814H11.0808H11.0801H11.0795H11.0789H11.0783H11.0776H11.077H11.0764H11.0757H11.0751H11.0745H11.0738H11.0732H11.0726H11.0719H11.0713H11.0707H11.0701H11.0694H11.0688H11.0682H11.0675H11.0669H11.0663H11.0656H11.065H11.0644H11.0637H11.0631H11.0625H11.0619H11.0612H11.0606H11.06H11.0593H11.0587H11.0581H11.0574H11.0568H11.0562H11.0555H11.0549H11.0543H11.0536H11.053H11.0524H11.0518H11.0511H11.0505H11.0499H11.0492H11.0486H11.048H11.0473H11.0467H11.0461H11.0454H11.0448H11.0442H11.0435H11.0429H11.0423H11.0417H11.041H11.0404H11.0398H11.0391H11.0385H11.0379H11.0372H11.0366H11.036H11.0353H11.0347H11.0341H11.0334H11.0328H11.0322H11.0315H11.0309H11.0303H11.0297H11.029H11.0284H11.0278H11.0271H11.0265H11.0259H11.0252H11.0246H11.024H11.0233H11.0227H11.0221H11.0214H11.0208H11.0202H11.0195H11.0189H11.0183H11.0177H11.017H11.0164H11.0158H11.0151H11.0145H11.0139H11.0132H11.0126H11.012H11.0113H11.0107H11.0101H11.0094H11.0088H11.0082H11.0075H11.0069H11.0063H11.0057H11.005H11.0044H11.0038H11.0031H11.0025H11.0019H11.0012H11.0006H11H10.9993H10.9987H10.9981H10.9974H10.9968H10.9962H10.9955H10.9949H10.9943H10.9936H10.993H10.9924H10.9918H10.9911H10.9905H10.9899H10.9892H10.9886H10.988H10.9873H10.9867H10.9861H10.9854H10.9848H10.9842H10.9835H10.9829H10.9823H10.9816H10.981H10.9804H10.9798H10.9791H10.9785H10.9779H10.9772H10.9766H10.976H10.9753H10.9747H10.9741H10.9734H10.9728H10.9722H10.9715H10.9709H10.9703H10.9696H10.969H10.9684H10.9678H10.9671H10.9665H10.9659H10.9652H10.9646H10.964H10.9633H10.9627H10.9621H10.9614H10.9608H10.9602H10.9595H10.9589H10.9583H10.9577H10.957H10.9564H10.9558H10.9551H10.9545H10.9539H10.9532H10.9526H10.952H10.9513H10.9507H10.9501H10.9494H10.9488H10.9482H10.9476H10.9469H10.9463H10.9457H10.945H10.9444H10.9438H10.9431H10.9425H10.9419H10.9412H10.9406H10.94H10.9394H10.9387H10.9381H10.9375H10.9368H10.9362H10.9356H10.9349H10.9343H10.9337H10.933H10.9324H10.9318H10.9312H10.9305H10.9299H10.9293H10.9286H10.928H10.9274H10.9267H10.9261H10.9255H10.9248H10.9242H10.9236H10.923H10.9223H10.9217H10.9211H10.9204H10.9198H10.9192H10.9185H10.9179H10.9173H10.9167H10.916H10.9154H10.9148H10.9141H10.9135H10.9129H10.9122H10.9116H10.911H10.9104H10.9097H10.9091H10.9085H10.9078H10.9072H10.9066H10.9059H10.9053H10.9047H10.9041H10.9034H10.9028H10.9022H10.9015H10.9009H10.9003H10.8996H10.899H10.8984H10.8978H10.8971H10.8965H10.8959H10.8952H10.8946H10.894H10.8934H10.8927H10.8921H10.8915H10.8908H10.8902H10.8896H10.889H10.8883H10.8877H10.8871H10.8864H10.8858H10.8852H10.8846H10.8839H10.8833H10.8827H10.882H10.8814H10.8808H10.8802H10.8795H10.8789H10.8783H10.8776H10.877H10.8764H10.8758H10.8751H10.8745H10.8739H10.8732H10.8726H10.872H10.8714H10.8707H10.8701H10.8695H10.8688H10.8682H10.8676H10.867H10.8663H10.8657H10.8651H10.8645H10.8638H10.8632H10.8626H10.8619H10.8613H10.8607H10.8601H10.8594H10.8588H10.8582H10.8575H10.8569H10.8563H10.8557H10.855H10.8544H10.8538H10.8532H10.8525H10.8519H10.8513H10.8507H10.85H10.8494H10.8488H10.8481H10.8475H10.8469H10.8463H10.8456H10.845H10.8444H10.8438H10.8431H10.8425H10.8414C10.6487 17.2439 10.4582 17.2907 10.2896 17.3841L7.74159 18.8053L7.72213 18.8162L7.70143 18.8079C6.99181 18.5256 6.32248 18.151 5.7107 17.6938L5.69197 17.6798L5.69188 17.6564L5.68157 14.8214C5.68074 14.6205 5.62379 14.4239 5.51716 14.2536L5.51699 14.2534C5.46242 14.1649 5.40767 14.0734 5.35659 13.9816C5.26079 13.8103 5.11972 13.6686 4.94882 13.5721L4.94863 13.5719L2.42675 12.131L2.40666 12.1195L2.40356 12.0966C2.30502 11.3695 2.30502 10.6324 2.40356 9.90526L2.40667 9.88227L2.42684 9.8708L4.94684 8.4383L4.94687 8.43829C5.11806 8.3411 5.25937 8.1989 5.35549 8.0271C5.35554 8.027 5.3556 8.02691 5.35565 8.02681L5.39657 8.04968L19.5962 12.1177ZM19.5962 12.1177L19.5993 12.0947C19.6972 11.3662 19.6963 10.6278 19.5964 9.89956L19.5933 9.87665L19.5732 9.8652L17.0513 8.42802L17.0512 8.42793C16.8803 8.33137 16.7392 8.18968 16.6434 8.01836L16.6025 8.04124L16.6435 8.01844C16.5924 7.92668 16.5376 7.8351 16.483 7.74663L16.4829 7.74636C16.3762 7.5761 16.3193 7.37944 16.3184 7.17857L16.3081 4.34357L16.308 4.32019L16.2893 4.30619C15.6775 3.84902 15.0082 3.47442 14.2986 3.19206L14.2779 3.18382L14.2584 3.1947L11.7104 4.61868C11.7104 4.6187 11.7103 4.61872 11.7103 4.61874C11.5417 4.71212 11.3513 4.75894 11.1586 4.75438L11.1586 4.75437H11.1575H11.1569H11.1563H11.1556H11.155H11.1544H11.1537H11.1531H11.1525H11.1519H11.1512H11.1506H11.15H11.1494H11.1487H11.1481H11.1475H11.1469H11.1462H11.1456H11.145H11.1443H11.1437H11.1431H11.1425H11.1418H11.1412H11.1406H11.14H11.1393H11.1387H11.1381H11.1374H11.1368H11.1362H11.1356H11.1349H11.1343H11.1337H11.1331H11.1324H11.1318H11.1312H11.1305H11.1299H11.1293H11.1287H11.128H11.1274H11.1268H11.1261H11.1255H11.1249H11.1243H11.1236H11.123H11.1224H11.1217H11.1211H11.1205H11.1199H11.1192H11.1186H11.118H11.1173H11.1167H11.1161H11.1155H11.1148H11.1142H11.1136H11.1129H11.1123H11.1117H11.1111H11.1104H11.1098H11.1092H11.1085H11.1079H11.1073H11.1067H11.106H11.1054H11.1048H11.1041H11.1035H11.1029H11.1023H11.1016H11.101H11.1004H11.0997H11.0991H11.0985H11.0978H11.0972H11.0966H11.096H11.0953H11.0947H11.0941H11.0934H11.0928H11.0922H11.0915H11.0909H11.0903H11.0897H11.089H11.0884H11.0878H11.0871H11.0865H11.0859H11.0852H11.0846H11.084H11.0834H11.0827H11.0821H11.0815H11.0808H11.0802H11.0796H11.0789H11.0783H11.0777H11.0771H11.0764H11.0758H11.0752H11.0745H11.0739H11.0733H11.0726H11.072H11.0714H11.0708H11.0701H11.0695H11.0689H11.0682H11.0676H11.067H11.0663H11.0657H11.0651H11.0644H11.0638H11.0632H11.0626H11.0619H11.0613H11.0607H11.06H11.0594H11.0588H11.0581H11.0575H11.0569H11.0562H11.0556H11.055H11.0544H11.0537H11.0531H11.0525H11.0518H11.0512H11.0506H11.0499H11.0493H11.0487H11.048H11.0474H11.0468H11.0461H11.0455H11.0449H11.0443H11.0436H11.043H11.0424H11.0417H11.0411H11.0405H11.0398H11.0392H11.0386H11.0379H11.0373H11.0367H11.036H11.0354H11.0348H11.0342H11.0335H11.0329H11.0323H11.0316H11.031H11.0304H11.0297H11.0291H11.0285H11.0278H11.0272H11.0266H11.0259H11.0253H11.0247H11.024H11.0234H11.0228H11.0222H11.0215H11.0209H11.0203H11.0196H11.019H11.0184H11.0177H11.0171H11.0165H11.0158H11.0152H11.0146H11.0139H11.0133H11.0127H11.012H11.0114H11.0108H11.0102H11.0095H11.0089H11.0083H11.0076H11.007H11.0064H11.0057H11.0051H11.0045H11.0038H11.0032H11.0026H11.0019H11.0013H11.0007H11H10.9994H10.9988H10.9982H10.9975H10.9969H10.9963H10.9956H10.995H10.9944H10.9937H10.9931H10.9925H10.9918H10.9912H10.9906H10.9899H10.9893H10.9887H10.988H10.9874H10.9868H10.9861H10.9855H10.9849H10.9843H10.9836H10.983H10.9824H10.9817H10.9811H10.9805H10.9798H10.9792H10.9786H10.9779H10.9773H10.9767H10.976H10.9754H10.9748H10.9741H10.9735H10.9729H10.9723H10.9716H10.971H10.9704H10.9697H10.9691H10.9685H10.9678H10.9672H10.9666H10.9659H10.9653H10.9647H10.964H10.9634H10.9628H10.9621H10.9615H10.9609H10.9603H10.9596H10.959H10.9584H10.9577H10.9571H10.9565H10.9558H10.9552H10.9546H10.9539H10.9533H10.9527H10.952H10.9514H10.9508H10.9502H10.9495H10.9489H10.9483H10.9476H10.947H10.9464H10.9457H10.9451H10.9445H10.9438H10.9432H10.9426H10.9419H10.9413H10.9407H10.9401H10.9394H10.9388H10.9382H10.9375H10.9369H10.9363H10.9356H10.935H10.9344H10.9337H10.9331H10.9325H10.9319H10.9312H10.9306H10.93H10.9293H10.9287H10.9281H10.9274H10.9268H10.9262H10.9255H10.9249H10.9243H10.9237H10.923H10.9224H10.9218H10.9211H10.9205H10.9199H10.9192H10.9186H10.918H10.9173H10.9167H10.9161H10.9155H10.9148H10.9142H10.9136H10.9129H10.9123H10.9117H10.911H10.9104H10.9098H10.9092H10.9085H10.9079H10.9073H10.9066H10.906H10.9054H10.9047H10.9041H10.9035H10.9029H10.9022H10.9016H10.901H10.9003H10.8997H10.8991H10.8984H10.8978H10.8972H10.8966H10.8959H10.8953H10.8947H10.894H10.8934H10.8928H10.8921H10.8915H10.8909H10.8903H10.8896H10.889H10.8884H10.8877H10.8871H10.8865H10.8859H10.8852H10.8846H10.884H10.8833H10.8827H10.8821H10.8815H10.8808H10.8802H10.8796H10.8789H10.8783H10.8777H10.8771H10.8764H10.8758H10.8752H10.8745H10.8739H10.8733H10.8727H10.872H10.8714H10.8708H10.8701H10.8695H10.8689H10.8683H10.8676H10.867H10.8664H10.8657H10.8651H10.8645H10.8639H10.8632H10.8626H10.862H10.8613H10.8607H10.8601H10.8595H10.8588H10.8582H10.8576H10.8569H10.8563H10.8557H10.8551H10.8544H10.8538H10.8532H10.8526H10.8519H10.8513H10.8507H10.85H10.8494H10.8488H10.8482H10.8475H10.8469H10.8463H10.8457H10.845H10.8444H10.8438H10.8432H10.8425H10.8419H10.8413H10.8406H10.84H10.8394H10.8388H10.8381H10.8375H10.8369H10.8363H10.8356H10.835V4.75435L10.8338 4.75438C10.6407 4.75953 10.4498 4.71236 10.2814 4.61786L10.2813 4.61783L7.73602 3.19377L7.71652 3.18286L7.69576 3.19114C6.98751 3.47374 6.31971 3.84868 5.70969 4.30624L5.69103 4.32024L5.69095 4.34357L5.68063 7.18695L19.5962 12.1177ZM16.4469 14.2212C16.5022 14.1322 16.5556 14.045 16.6063 13.9512L16.4469 14.2212ZM16.4469 14.2212C16.3358 14.3986 16.2764 14.6035 16.2753 14.8128M16.4469 14.2212L16.2753 14.8128M16.2753 14.8128L16.2622 17.6562L16.2753 14.8128ZM3.47657 6.73812L0.875007 8.2203L7.91333 0.879812C7.75669 0.865278 7.59875 0.883757 7.44969 0.934054C6.14559 1.37366 4.93672 2.05667 3.88719 2.94687C3.76326 3.05193 3.66356 3.18259 3.59494 3.32986C3.52632 3.47713 3.49042 3.63752 3.48969 3.79999L3.47657 6.73812ZM8.31765 6.98555C9.11161 6.45504 10.0451 6.17188 11 6.17187C12.28 6.17334 13.5072 6.6825 14.4124 7.58764C15.3175 8.49278 15.8267 9.71999 15.8281 11C15.8281 11.9549 15.545 12.8884 15.0144 13.6824C14.4839 14.4763 13.7299 15.0952 12.8477 15.4606C11.9654 15.826 10.9947 15.9216 10.0581 15.7353C9.12152 15.5491 8.26123 15.0892 7.58601 14.414C6.91078 13.7388 6.45095 12.8785 6.26465 11.9419C6.07836 11.0053 6.17397 10.0346 6.5394 9.15235C6.90483 8.27012 7.52366 7.51607 8.31765 6.98555ZM9.51559 13.2216C9.95498 13.5152 10.4716 13.6719 11 13.6719C11.7086 13.6719 12.3882 13.3904 12.8893 12.8893C13.3904 12.3882 13.6719 11.7086 13.6719 11C13.6719 10.4715 13.5152 9.95496 13.2216 9.51558C12.928 9.07619 12.5107 8.73373 12.0225 8.5315C11.5343 8.32927 10.997 8.27636 10.4788 8.37946C9.96046 8.48255 9.48437 8.73702 9.11071 9.11069C8.73704 9.48436 8.48257 9.96044 8.37947 10.4787C8.27638 10.997 8.32929 11.5343 8.53152 12.0225C8.73374 12.5107 9.07621 12.928 9.51559 13.2216Z" fill="#CBD5E1" stroke="#CBD5E1" stroke-width="0.09375"/>
</svg>
