<svg width="48" height="48" viewBox="0 0 48 48" fill="none" xmlns="http://www.w3.org/2000/svg">
<path d="M28.2469 26.6598L28.1805 26.7096L28.2573 26.7407C30.6531 27.7134 32.6519 29.4638 33.932 31.7102C34.0639 31.9569 34.0947 32.2451 34.0181 32.5141C33.9413 32.7832 33.7629 33.012 33.5206 33.152C33.2783 33.292 32.991 33.3323 32.7195 33.2644C32.4482 33.1965 32.214 33.0258 32.0661 32.7885C30.3591 29.8395 27.3441 28.0783 24 28.0783C20.6557 28.0783 17.6404 29.8388 15.9335 32.7892L15.9334 32.7891L15.9327 32.7905C15.8645 32.9179 15.7714 33.0303 15.6589 33.1211C15.5464 33.2118 15.4168 33.2789 15.2778 33.3186C15.1388 33.3582 14.9932 33.3695 14.8498 33.3517C14.7064 33.334 14.568 33.2876 14.4428 33.2153C14.3177 33.143 14.2084 33.0462 14.1213 32.9308C14.0343 32.8154 13.9714 32.6837 13.9363 32.5435C13.9012 32.4033 13.8947 32.2575 13.9171 32.1147C13.9395 31.9719 13.9903 31.8351 14.0667 31.7124L14.0667 31.7124L14.0676 31.7108C15.3477 29.4641 17.3467 27.7134 19.7426 26.7407L19.8194 26.7096L19.7531 26.6598C18.5646 25.7685 17.6868 24.5258 17.2438 23.1078C16.8009 21.6898 16.8153 20.1684 17.2851 18.759C17.7549 17.3497 18.6562 16.1239 19.8613 15.2552C21.0665 14.3866 22.5144 13.9192 24 13.9192C25.4856 13.9192 26.9335 14.3866 28.1386 15.2552C29.3438 16.1239 30.2451 17.3497 30.7149 18.759C31.1847 20.1684 31.1991 21.6898 30.7561 23.1078C30.3132 24.5258 29.4353 25.7685 28.2469 26.6598ZM19.0781 21.0001V21.0002C19.0796 22.3051 19.5986 23.5561 20.5213 24.4788C21.444 25.4015 22.695 25.9205 23.9999 25.922H24C24.9734 25.922 25.925 25.6333 26.7344 25.0925C27.5438 24.5517 28.1747 23.783 28.5472 22.8836C28.9197 21.9843 29.0172 20.9947 28.8273 20.0399C28.6374 19.0852 28.1686 18.2082 27.4803 17.5198C26.7919 16.8315 25.9149 16.3627 24.9602 16.1728C24.0054 15.9829 23.0158 16.0804 22.1165 16.4529C21.2171 16.8254 20.4484 17.4563 19.9076 18.2657C19.3668 19.0751 19.0781 20.0267 19.0781 21.0001Z" fill="#CBD5E1" stroke="#CBD5E1" stroke-width="0.09375"/>
</svg>
