<svg width="167" height="56" viewBox="0 0 167 56" fill="none" xmlns="http://www.w3.org/2000/svg">
<g filter="url(#filter0_b_6443_1378)">
<rect width="167" height="56" rx="28" fill="white" fill-opacity="0.16"/>
<path d="M34.125 23.875C34.125 23.5783 34.213 23.2883 34.3778 23.0416C34.5426 22.795 34.7769 22.6027 35.051 22.4892C35.3251 22.3756 35.6267 22.3459 35.9176 22.4038C36.2086 22.4617 36.4759 22.6046 36.6857 22.8143C36.8954 23.0241 37.0383 23.2914 37.0962 23.5824C37.1541 23.8733 37.1244 24.1749 37.0108 24.449C36.8973 24.7231 36.705 24.9574 36.4584 25.1222C36.2117 25.287 35.9217 25.375 35.625 25.375C35.2272 25.375 34.8456 25.217 34.5643 24.9357C34.283 24.6544 34.125 24.2728 34.125 23.875ZM46.125 28C46.125 30.0025 45.5312 31.9601 44.4186 33.6251C43.3061 35.2902 41.7248 36.5879 39.8747 37.3543C38.0246 38.1206 35.9888 38.3211 34.0247 37.9305C32.0607 37.5398 30.2566 36.5755 28.8405 35.1595C27.4245 33.7435 26.4602 31.9393 26.0696 29.9753C25.6789 28.0112 25.8794 25.9754 26.6457 24.1253C27.4121 22.2752 28.7098 20.6939 30.3749 19.5814C32.0399 18.4688 33.9975 17.875 36 17.875C38.6844 17.878 41.258 18.9457 43.1562 20.8438C45.0543 22.742 46.122 25.3156 46.125 28ZM43.875 28C43.875 26.4425 43.4131 24.9199 42.5478 23.6249C41.6825 22.3298 40.4526 21.3205 39.0136 20.7244C37.5747 20.1284 35.9913 19.9725 34.4637 20.2763C32.9361 20.5802 31.5329 21.3302 30.4315 22.4315C29.3302 23.5329 28.5802 24.9361 28.2763 26.4637C27.9725 27.9913 28.1284 29.5747 28.7245 31.0136C29.3205 32.4526 30.3299 33.6825 31.6249 34.5478C32.9199 35.4131 34.4425 35.875 36 35.875C38.0879 35.8728 40.0896 35.0424 41.566 33.566C43.0424 32.0896 43.8728 30.0879 43.875 28ZM37.125 31.4387V28.375C37.125 27.8777 36.9275 27.4008 36.5758 27.0492C36.2242 26.6975 35.7473 26.5 35.25 26.5C34.9843 26.4996 34.7271 26.5932 34.5238 26.7643C34.3206 26.9354 34.1844 27.173 34.1395 27.4348C34.0946 27.6967 34.1438 27.966 34.2784 28.195C34.413 28.4241 34.6244 28.5981 34.875 28.6863V31.75C34.875 32.2473 35.0725 32.7242 35.4242 33.0758C35.7758 33.4275 36.2527 33.625 36.75 33.625C37.0157 33.6254 37.2729 33.5318 37.4762 33.3607C37.6794 33.1896 37.8156 32.952 37.8605 32.6902C37.9054 32.4283 37.8562 32.159 37.7216 31.93C37.587 31.7009 37.3756 31.5269 37.125 31.4387Z" fill="white"/>
<path d="M61.296 35V21.59H63.636L68.658 28.412H67.542L72.456 21.59H74.796V35H72.33V24.38L73.284 24.614L68.19 31.4H67.902L62.934 24.614L63.744 24.38V35H61.296ZM81.8084 35.216C80.8484 35.216 79.9724 34.994 79.1804 34.55C78.4004 34.106 77.7764 33.5 77.3084 32.732C76.8524 31.964 76.6244 31.088 76.6244 30.104C76.6244 29.12 76.8524 28.244 77.3084 27.476C77.7764 26.708 78.4004 26.102 79.1804 25.658C79.9604 25.214 80.8364 24.992 81.8084 24.992C82.7684 24.992 83.6384 25.214 84.4184 25.658C85.1984 26.102 85.8164 26.708 86.2724 27.476C86.7404 28.232 86.9744 29.108 86.9744 30.104C86.9744 31.088 86.7404 31.964 86.2724 32.732C85.8044 33.5 85.1804 34.106 84.4004 34.55C83.6204 34.994 82.7564 35.216 81.8084 35.216ZM81.8084 33.056C82.3364 33.056 82.7984 32.93 83.1944 32.678C83.6024 32.426 83.9204 32.078 84.1484 31.634C84.3884 31.178 84.5084 30.668 84.5084 30.104C84.5084 29.528 84.3884 29.024 84.1484 28.592C83.9204 28.148 83.6024 27.8 83.1944 27.548C82.7984 27.284 82.3364 27.152 81.8084 27.152C81.2684 27.152 80.7944 27.284 80.3864 27.548C79.9784 27.8 79.6544 28.148 79.4144 28.592C79.1864 29.024 79.0724 29.528 79.0724 30.104C79.0724 30.668 79.1864 31.178 79.4144 31.634C79.6544 32.078 79.9784 32.426 80.3864 32.678C80.7944 32.93 81.2684 33.056 81.8084 33.056ZM88.6186 35V25.208H90.8326V27.386L90.6526 27.062C90.8806 26.33 91.2346 25.82 91.7146 25.532C92.2066 25.244 92.7946 25.1 93.4786 25.1H94.0546V27.188H93.2086C92.5366 27.188 91.9966 27.398 91.5886 27.818C91.1806 28.226 90.9766 28.802 90.9766 29.546V35H88.6186ZM99.851 35.216C98.843 35.216 97.961 34.988 97.205 34.532C96.449 34.076 95.861 33.458 95.441 32.678C95.021 31.898 94.811 31.034 94.811 30.086C94.811 29.102 95.021 28.232 95.441 27.476C95.873 26.708 96.455 26.102 97.187 25.658C97.931 25.214 98.759 24.992 99.671 24.992C100.439 24.992 101.111 25.118 101.687 25.37C102.275 25.622 102.773 25.97 103.181 26.414C103.589 26.858 103.901 27.368 104.117 27.944C104.333 28.508 104.441 29.12 104.441 29.78C104.441 29.948 104.429 30.122 104.405 30.302C104.393 30.482 104.363 30.638 104.315 30.77H96.755V28.97H102.983L101.867 29.816C101.975 29.264 101.945 28.772 101.777 28.34C101.621 27.908 101.357 27.566 100.985 27.314C100.625 27.062 100.187 26.936 99.671 26.936C99.179 26.936 98.741 27.062 98.357 27.314C97.973 27.554 97.679 27.914 97.475 28.394C97.283 28.862 97.211 29.432 97.259 30.104C97.211 30.704 97.289 31.238 97.493 31.706C97.709 32.162 98.021 32.516 98.429 32.768C98.849 33.02 99.329 33.146 99.869 33.146C100.409 33.146 100.865 33.032 101.237 32.804C101.621 32.576 101.921 32.27 102.137 31.886L104.045 32.822C103.853 33.29 103.553 33.704 103.145 34.064C102.737 34.424 102.251 34.706 101.687 34.91C101.135 35.114 100.523 35.216 99.851 35.216ZM109.338 35V21.59H111.786V35H109.338ZM114.023 35V25.208H116.237V27.134L116.057 26.792C116.285 26.204 116.657 25.76 117.173 25.46C117.701 25.148 118.313 24.992 119.009 24.992C119.729 24.992 120.365 25.148 120.917 25.46C121.481 25.772 121.919 26.21 122.231 26.774C122.543 27.326 122.699 27.968 122.699 28.7V35H120.341V29.258C120.341 28.826 120.257 28.454 120.089 28.142C119.921 27.83 119.687 27.59 119.387 27.422C119.099 27.242 118.757 27.152 118.361 27.152C117.977 27.152 117.635 27.242 117.335 27.422C117.035 27.59 116.801 27.83 116.633 28.142C116.465 28.454 116.381 28.826 116.381 29.258V35H114.023ZM125.683 35V27.314H123.955V25.208H125.683V24.884C125.683 24.14 125.833 23.51 126.133 22.994C126.445 22.466 126.877 22.064 127.429 21.788C127.981 21.512 128.635 21.374 129.391 21.374C129.535 21.374 129.691 21.386 129.859 21.41C130.039 21.422 130.189 21.44 130.309 21.464V23.498C130.189 23.474 130.075 23.462 129.967 23.462C129.871 23.45 129.781 23.444 129.697 23.444C129.169 23.444 128.761 23.564 128.473 23.804C128.185 24.032 128.041 24.392 128.041 24.884V25.208H130.219V27.314H128.041V35H125.683ZM136.224 35.216C135.264 35.216 134.388 34.994 133.596 34.55C132.816 34.106 132.192 33.5 131.724 32.732C131.268 31.964 131.04 31.088 131.04 30.104C131.04 29.12 131.268 28.244 131.724 27.476C132.192 26.708 132.816 26.102 133.596 25.658C134.376 25.214 135.252 24.992 136.224 24.992C137.184 24.992 138.054 25.214 138.834 25.658C139.614 26.102 140.232 26.708 140.688 27.476C141.156 28.232 141.39 29.108 141.39 30.104C141.39 31.088 141.156 31.964 140.688 32.732C140.22 33.5 139.596 34.106 138.816 34.55C138.036 34.994 137.172 35.216 136.224 35.216ZM136.224 33.056C136.752 33.056 137.214 32.93 137.61 32.678C138.018 32.426 138.336 32.078 138.564 31.634C138.804 31.178 138.924 30.668 138.924 30.104C138.924 29.528 138.804 29.024 138.564 28.592C138.336 28.148 138.018 27.8 137.61 27.548C137.214 27.284 136.752 27.152 136.224 27.152C135.684 27.152 135.21 27.284 134.802 27.548C134.394 27.8 134.07 28.148 133.83 28.592C133.602 29.024 133.488 29.528 133.488 30.104C133.488 30.668 133.602 31.178 133.83 31.634C134.07 32.078 134.394 32.426 134.802 32.678C135.21 32.93 135.684 33.056 136.224 33.056Z" fill="white"/>
</g>
<defs>
<filter id="filter0_b_6443_1378" x="-32" y="-32" width="231" height="120" filterUnits="userSpaceOnUse" color-interpolation-filters="sRGB">
<feFlood flood-opacity="0" result="BackgroundImageFix"/>
<feGaussianBlur in="BackgroundImageFix" stdDeviation="16"/>
<feComposite in2="SourceAlpha" operator="in" result="effect1_backgroundBlur_6443_1378"/>
<feBlend mode="normal" in="SourceGraphic" in2="effect1_backgroundBlur_6443_1378" result="shape"/>
</filter>
</defs>
</svg>
