<svg width="80" height="28" viewBox="0 0 80 28" fill="none" xmlns="http://www.w3.org/2000/svg">
<g filter="url(#filter0_d_5060_37)">
<mask id="path-1-outside-1_5060_37" maskUnits="userSpaceOnUse" x="4" y="0.5" width="72" height="19" fill="black">
<rect fill="white" x="4" y="0.5" width="72" height="19"/>
<path d="M11.6431 18.5C10.2723 18.5 9.07667 18.1905 8.05619 17.5715C7.05094 16.9378 6.36554 16.0904 6 15.0293L8.51312 13.8797C8.83297 14.5282 9.26706 15.0366 9.81538 15.4051C10.3637 15.7735 10.9729 15.9577 11.6431 15.9577C12.1305 15.9577 12.5037 15.8619 12.7626 15.6704C13.0215 15.4788 13.151 15.2135 13.151 14.8745C13.151 14.6977 13.1053 14.5503 13.0139 14.4324C12.9225 14.2997 12.7854 14.1818 12.6027 14.0787C12.4199 13.9755 12.1914 13.8871 11.9173 13.8134L9.79253 13.2386C8.77205 12.9586 7.98765 12.5091 7.43933 11.8901C6.89102 11.2564 6.61686 10.5121 6.61686 9.65735C6.61686 8.90572 6.81486 8.24989 7.21087 7.68986C7.60687 7.12982 8.16281 6.69506 8.87867 6.38557C9.59453 6.06134 10.417 5.89922 11.3461 5.89922C12.5646 5.89922 13.6308 6.17924 14.5446 6.73927C15.4737 7.28457 16.1286 8.0583 16.5094 9.06047L13.9734 10.21C13.7907 9.70893 13.4556 9.31101 12.9682 9.01625C12.496 8.70676 11.9553 8.55202 11.3461 8.55202C10.9044 8.55202 10.5541 8.64044 10.2952 8.81729C10.0515 8.99415 9.92961 9.23732 9.92961 9.54681C9.92961 9.70893 9.9753 9.85631 10.0667 9.98895C10.1581 10.1216 10.3028 10.2395 10.5008 10.3427C10.714 10.4458 10.9729 10.5416 11.2776 10.63L13.2652 11.2048C14.3009 11.4996 15.0929 11.9491 15.6412 12.5533C16.1896 13.1428 16.4637 13.8723 16.4637 14.7419C16.4637 15.4935 16.2581 16.1493 15.8469 16.7094C15.4509 17.2694 14.8949 17.7115 14.1791 18.0358C13.4632 18.3453 12.6179 18.5 11.6431 18.5Z"/>
<path d="M22.0074 18.3674C20.4843 18.3674 19.3648 18.0505 18.649 17.4168C17.9483 16.7683 17.598 15.7588 17.598 14.3882V1.5H21.025V14.145C21.025 15.044 21.5276 15.4935 22.5329 15.4935H22.6243V18.3674H22.0074Z"/>
<path d="M29.792 18.5C28.5583 18.5 27.4312 18.2274 26.4107 17.6821C25.4055 17.1368 24.5982 16.3925 23.989 15.4493C23.395 14.4913 23.098 13.4081 23.098 12.1996C23.098 10.9764 23.395 9.89315 23.989 8.94994C24.5982 8.00672 25.4055 7.26246 26.4107 6.71716C27.4312 6.17187 28.5583 5.89922 29.792 5.89922C31.0257 5.89922 32.1452 6.17187 33.1505 6.71716C34.1557 7.26246 34.9553 8.00672 35.5493 8.94994C36.1586 9.89315 36.4632 10.9764 36.4632 12.1996C36.4632 13.4081 36.1586 14.4913 35.5493 15.4493C34.9553 16.3925 34.1557 17.1368 33.1505 17.6821C32.1452 18.2274 31.0257 18.5 29.792 18.5ZM29.792 15.5156C30.4165 15.5156 30.9572 15.3756 31.4141 15.0956C31.8863 14.8156 32.2518 14.425 32.5108 13.9239C32.7849 13.4228 32.922 12.8481 32.922 12.1996C32.922 11.5511 32.7849 10.9837 32.5108 10.4974C32.2518 9.99632 31.8863 9.60576 31.4141 9.32575C30.9572 9.03099 30.4165 8.88361 29.792 8.88361C29.1675 8.88361 28.6192 9.03099 28.1471 9.32575C27.6749 9.60576 27.3017 9.99632 27.0276 10.4974C26.7687 10.9837 26.6392 11.5511 26.6392 12.1996C26.6392 12.8481 26.7687 13.4228 27.0276 13.9239C27.3017 14.425 27.6749 14.8156 28.1471 15.0956C28.6192 15.3756 29.1675 15.5156 29.792 15.5156Z"/>
<path d="M43.3538 18.3674C41.8459 18.3674 40.6731 17.9768 39.8354 17.1957C39.0129 16.3999 38.6017 15.2945 38.6017 13.8797V9.03836H36.4998V6.1645H36.614C37.2537 6.1645 37.7411 6.00975 38.0762 5.70026C38.4265 5.39077 38.6017 4.92653 38.6017 4.30754V3.42328H42.0287V6.1645H44.953V9.03836H42.0287V13.6586C42.0287 14.0713 42.1048 14.4176 42.2571 14.6977C42.4094 14.9629 42.6455 15.1619 42.9654 15.2945C43.2852 15.4272 43.6812 15.4935 44.1534 15.4935C44.26 15.4935 44.3819 15.4861 44.5189 15.4714C44.656 15.4567 44.8007 15.4419 44.953 15.4272V18.2347C44.7246 18.2642 44.4656 18.2937 44.1762 18.3231C43.8869 18.3526 43.6127 18.3674 43.3538 18.3674Z"/>
<path d="M46.0473 18.2347V1.5H49.4743V6.1645H51.9646C53.1069 6.1645 54.0893 6.35609 54.9118 6.73927C55.7343 7.12245 56.3664 7.66775 56.8081 8.37516C57.2498 9.08257 57.4706 9.92263 57.4706 10.8953V18.2347H54.0436V11.0722C54.0436 10.4532 53.8533 9.95947 53.4725 9.59103C53.0917 9.22258 52.5891 9.03836 51.9646 9.03836H49.4743V18.2347H46.0473Z"/>
<path d="M64.2705 18.5C63.1282 18.5 62.1305 18.2863 61.2776 17.8589C60.4247 17.4315 59.7545 16.8346 59.2671 16.0683C58.7949 15.3019 58.5589 14.4103 58.5589 13.3934V6.1645H61.9859V13.327C61.9859 13.7692 62.0772 14.1524 62.26 14.4766C62.458 14.8008 62.7322 15.0587 63.0825 15.2503C63.4328 15.4272 63.8288 15.5156 64.2705 15.5156C64.7274 15.5156 65.1234 15.4272 65.4585 15.2503C65.8088 15.0587 66.0754 14.8008 66.2582 14.4766C66.4562 14.1524 66.5552 13.7692 66.5552 13.327V6.1645H69.9821V13.3934C69.9821 14.4103 69.7385 15.3019 69.2511 16.0683C68.7789 16.8346 68.1163 17.4315 67.2634 17.8589C66.4105 18.2863 65.4128 18.5 64.2705 18.5Z"/>
<path d="M71.573 18.2347V6.1645H75V18.2347H71.573ZM71.573 5.08127V1.76528H75V5.08127H71.573Z"/>
</mask>
<path d="M11.6431 18.5C10.2723 18.5 9.07667 18.1905 8.05619 17.5715C7.05094 16.9378 6.36554 16.0904 6 15.0293L8.51312 13.8797C8.83297 14.5282 9.26706 15.0366 9.81538 15.4051C10.3637 15.7735 10.9729 15.9577 11.6431 15.9577C12.1305 15.9577 12.5037 15.8619 12.7626 15.6704C13.0215 15.4788 13.151 15.2135 13.151 14.8745C13.151 14.6977 13.1053 14.5503 13.0139 14.4324C12.9225 14.2997 12.7854 14.1818 12.6027 14.0787C12.4199 13.9755 12.1914 13.8871 11.9173 13.8134L9.79253 13.2386C8.77205 12.9586 7.98765 12.5091 7.43933 11.8901C6.89102 11.2564 6.61686 10.5121 6.61686 9.65735C6.61686 8.90572 6.81486 8.24989 7.21087 7.68986C7.60687 7.12982 8.16281 6.69506 8.87867 6.38557C9.59453 6.06134 10.417 5.89922 11.3461 5.89922C12.5646 5.89922 13.6308 6.17924 14.5446 6.73927C15.4737 7.28457 16.1286 8.0583 16.5094 9.06047L13.9734 10.21C13.7907 9.70893 13.4556 9.31101 12.9682 9.01625C12.496 8.70676 11.9553 8.55202 11.3461 8.55202C10.9044 8.55202 10.5541 8.64044 10.2952 8.81729C10.0515 8.99415 9.92961 9.23732 9.92961 9.54681C9.92961 9.70893 9.9753 9.85631 10.0667 9.98895C10.1581 10.1216 10.3028 10.2395 10.5008 10.3427C10.714 10.4458 10.9729 10.5416 11.2776 10.63L13.2652 11.2048C14.3009 11.4996 15.0929 11.9491 15.6412 12.5533C16.1896 13.1428 16.4637 13.8723 16.4637 14.7419C16.4637 15.4935 16.2581 16.1493 15.8469 16.7094C15.4509 17.2694 14.8949 17.7115 14.1791 18.0358C13.4632 18.3453 12.6179 18.5 11.6431 18.5Z" fill="white"/>
<path d="M22.0074 18.3674C20.4843 18.3674 19.3648 18.0505 18.649 17.4168C17.9483 16.7683 17.598 15.7588 17.598 14.3882V1.5H21.025V14.145C21.025 15.044 21.5276 15.4935 22.5329 15.4935H22.6243V18.3674H22.0074Z" fill="white"/>
<path d="M29.792 18.5C28.5583 18.5 27.4312 18.2274 26.4107 17.6821C25.4055 17.1368 24.5982 16.3925 23.989 15.4493C23.395 14.4913 23.098 13.4081 23.098 12.1996C23.098 10.9764 23.395 9.89315 23.989 8.94994C24.5982 8.00672 25.4055 7.26246 26.4107 6.71716C27.4312 6.17187 28.5583 5.89922 29.792 5.89922C31.0257 5.89922 32.1452 6.17187 33.1505 6.71716C34.1557 7.26246 34.9553 8.00672 35.5493 8.94994C36.1586 9.89315 36.4632 10.9764 36.4632 12.1996C36.4632 13.4081 36.1586 14.4913 35.5493 15.4493C34.9553 16.3925 34.1557 17.1368 33.1505 17.6821C32.1452 18.2274 31.0257 18.5 29.792 18.5ZM29.792 15.5156C30.4165 15.5156 30.9572 15.3756 31.4141 15.0956C31.8863 14.8156 32.2518 14.425 32.5108 13.9239C32.7849 13.4228 32.922 12.8481 32.922 12.1996C32.922 11.5511 32.7849 10.9837 32.5108 10.4974C32.2518 9.99632 31.8863 9.60576 31.4141 9.32575C30.9572 9.03099 30.4165 8.88361 29.792 8.88361C29.1675 8.88361 28.6192 9.03099 28.1471 9.32575C27.6749 9.60576 27.3017 9.99632 27.0276 10.4974C26.7687 10.9837 26.6392 11.5511 26.6392 12.1996C26.6392 12.8481 26.7687 13.4228 27.0276 13.9239C27.3017 14.425 27.6749 14.8156 28.1471 15.0956C28.6192 15.3756 29.1675 15.5156 29.792 15.5156Z" fill="white"/>
<path d="M43.3538 18.3674C41.8459 18.3674 40.6731 17.9768 39.8354 17.1957C39.0129 16.3999 38.6017 15.2945 38.6017 13.8797V9.03836H36.4998V6.1645H36.614C37.2537 6.1645 37.7411 6.00975 38.0762 5.70026C38.4265 5.39077 38.6017 4.92653 38.6017 4.30754V3.42328H42.0287V6.1645H44.953V9.03836H42.0287V13.6586C42.0287 14.0713 42.1048 14.4176 42.2571 14.6977C42.4094 14.9629 42.6455 15.1619 42.9654 15.2945C43.2852 15.4272 43.6812 15.4935 44.1534 15.4935C44.26 15.4935 44.3819 15.4861 44.5189 15.4714C44.656 15.4567 44.8007 15.4419 44.953 15.4272V18.2347C44.7246 18.2642 44.4656 18.2937 44.1762 18.3231C43.8869 18.3526 43.6127 18.3674 43.3538 18.3674Z" fill="white"/>
<path d="M46.0473 18.2347V1.5H49.4743V6.1645H51.9646C53.1069 6.1645 54.0893 6.35609 54.9118 6.73927C55.7343 7.12245 56.3664 7.66775 56.8081 8.37516C57.2498 9.08257 57.4706 9.92263 57.4706 10.8953V18.2347H54.0436V11.0722C54.0436 10.4532 53.8533 9.95947 53.4725 9.59103C53.0917 9.22258 52.5891 9.03836 51.9646 9.03836H49.4743V18.2347H46.0473Z" fill="white"/>
<path d="M64.2705 18.5C63.1282 18.5 62.1305 18.2863 61.2776 17.8589C60.4247 17.4315 59.7545 16.8346 59.2671 16.0683C58.7949 15.3019 58.5589 14.4103 58.5589 13.3934V6.1645H61.9859V13.327C61.9859 13.7692 62.0772 14.1524 62.26 14.4766C62.458 14.8008 62.7322 15.0587 63.0825 15.2503C63.4328 15.4272 63.8288 15.5156 64.2705 15.5156C64.7274 15.5156 65.1234 15.4272 65.4585 15.2503C65.8088 15.0587 66.0754 14.8008 66.2582 14.4766C66.4562 14.1524 66.5552 13.7692 66.5552 13.327V6.1645H69.9821V13.3934C69.9821 14.4103 69.7385 15.3019 69.2511 16.0683C68.7789 16.8346 68.1163 17.4315 67.2634 17.8589C66.4105 18.2863 65.4128 18.5 64.2705 18.5Z" fill="white"/>
<path d="M71.573 18.2347V6.1645H75V18.2347H71.573ZM71.573 5.08127V1.76528H75V5.08127H71.573Z" fill="white"/>
<path d="M11.6431 18.5C10.2723 18.5 9.07667 18.1905 8.05619 17.5715C7.05094 16.9378 6.36554 16.0904 6 15.0293L8.51312 13.8797C8.83297 14.5282 9.26706 15.0366 9.81538 15.4051C10.3637 15.7735 10.9729 15.9577 11.6431 15.9577C12.1305 15.9577 12.5037 15.8619 12.7626 15.6704C13.0215 15.4788 13.151 15.2135 13.151 14.8745C13.151 14.6977 13.1053 14.5503 13.0139 14.4324C12.9225 14.2997 12.7854 14.1818 12.6027 14.0787C12.4199 13.9755 12.1914 13.8871 11.9173 13.8134L9.79253 13.2386C8.77205 12.9586 7.98765 12.5091 7.43933 11.8901C6.89102 11.2564 6.61686 10.5121 6.61686 9.65735C6.61686 8.90572 6.81486 8.24989 7.21087 7.68986C7.60687 7.12982 8.16281 6.69506 8.87867 6.38557C9.59453 6.06134 10.417 5.89922 11.3461 5.89922C12.5646 5.89922 13.6308 6.17924 14.5446 6.73927C15.4737 7.28457 16.1286 8.0583 16.5094 9.06047L13.9734 10.21C13.7907 9.70893 13.4556 9.31101 12.9682 9.01625C12.496 8.70676 11.9553 8.55202 11.3461 8.55202C10.9044 8.55202 10.5541 8.64044 10.2952 8.81729C10.0515 8.99415 9.92961 9.23732 9.92961 9.54681C9.92961 9.70893 9.9753 9.85631 10.0667 9.98895C10.1581 10.1216 10.3028 10.2395 10.5008 10.3427C10.714 10.4458 10.9729 10.5416 11.2776 10.63L13.2652 11.2048C14.3009 11.4996 15.0929 11.9491 15.6412 12.5533C16.1896 13.1428 16.4637 13.8723 16.4637 14.7419C16.4637 15.4935 16.2581 16.1493 15.8469 16.7094C15.4509 17.2694 14.8949 17.7115 14.1791 18.0358C13.4632 18.3453 12.6179 18.5 11.6431 18.5Z" stroke="black" stroke-width="2" mask="url(#path-1-outside-1_5060_37)"/>
<path d="M22.0074 18.3674C20.4843 18.3674 19.3648 18.0505 18.649 17.4168C17.9483 16.7683 17.598 15.7588 17.598 14.3882V1.5H21.025V14.145C21.025 15.044 21.5276 15.4935 22.5329 15.4935H22.6243V18.3674H22.0074Z" stroke="black" stroke-width="2" mask="url(#path-1-outside-1_5060_37)"/>
<path d="M29.792 18.5C28.5583 18.5 27.4312 18.2274 26.4107 17.6821C25.4055 17.1368 24.5982 16.3925 23.989 15.4493C23.395 14.4913 23.098 13.4081 23.098 12.1996C23.098 10.9764 23.395 9.89315 23.989 8.94994C24.5982 8.00672 25.4055 7.26246 26.4107 6.71716C27.4312 6.17187 28.5583 5.89922 29.792 5.89922C31.0257 5.89922 32.1452 6.17187 33.1505 6.71716C34.1557 7.26246 34.9553 8.00672 35.5493 8.94994C36.1586 9.89315 36.4632 10.9764 36.4632 12.1996C36.4632 13.4081 36.1586 14.4913 35.5493 15.4493C34.9553 16.3925 34.1557 17.1368 33.1505 17.6821C32.1452 18.2274 31.0257 18.5 29.792 18.5ZM29.792 15.5156C30.4165 15.5156 30.9572 15.3756 31.4141 15.0956C31.8863 14.8156 32.2518 14.425 32.5108 13.9239C32.7849 13.4228 32.922 12.8481 32.922 12.1996C32.922 11.5511 32.7849 10.9837 32.5108 10.4974C32.2518 9.99632 31.8863 9.60576 31.4141 9.32575C30.9572 9.03099 30.4165 8.88361 29.792 8.88361C29.1675 8.88361 28.6192 9.03099 28.1471 9.32575C27.6749 9.60576 27.3017 9.99632 27.0276 10.4974C26.7687 10.9837 26.6392 11.5511 26.6392 12.1996C26.6392 12.8481 26.7687 13.4228 27.0276 13.9239C27.3017 14.425 27.6749 14.8156 28.1471 15.0956C28.6192 15.3756 29.1675 15.5156 29.792 15.5156Z" stroke="black" stroke-width="2" mask="url(#path-1-outside-1_5060_37)"/>
<path d="M43.3538 18.3674C41.8459 18.3674 40.6731 17.9768 39.8354 17.1957C39.0129 16.3999 38.6017 15.2945 38.6017 13.8797V9.03836H36.4998V6.1645H36.614C37.2537 6.1645 37.7411 6.00975 38.0762 5.70026C38.4265 5.39077 38.6017 4.92653 38.6017 4.30754V3.42328H42.0287V6.1645H44.953V9.03836H42.0287V13.6586C42.0287 14.0713 42.1048 14.4176 42.2571 14.6977C42.4094 14.9629 42.6455 15.1619 42.9654 15.2945C43.2852 15.4272 43.6812 15.4935 44.1534 15.4935C44.26 15.4935 44.3819 15.4861 44.5189 15.4714C44.656 15.4567 44.8007 15.4419 44.953 15.4272V18.2347C44.7246 18.2642 44.4656 18.2937 44.1762 18.3231C43.8869 18.3526 43.6127 18.3674 43.3538 18.3674Z" stroke="black" stroke-width="2" mask="url(#path-1-outside-1_5060_37)"/>
<path d="M46.0473 18.2347V1.5H49.4743V6.1645H51.9646C53.1069 6.1645 54.0893 6.35609 54.9118 6.73927C55.7343 7.12245 56.3664 7.66775 56.8081 8.37516C57.2498 9.08257 57.4706 9.92263 57.4706 10.8953V18.2347H54.0436V11.0722C54.0436 10.4532 53.8533 9.95947 53.4725 9.59103C53.0917 9.22258 52.5891 9.03836 51.9646 9.03836H49.4743V18.2347H46.0473Z" stroke="black" stroke-width="2" mask="url(#path-1-outside-1_5060_37)"/>
<path d="M64.2705 18.5C63.1282 18.5 62.1305 18.2863 61.2776 17.8589C60.4247 17.4315 59.7545 16.8346 59.2671 16.0683C58.7949 15.3019 58.5589 14.4103 58.5589 13.3934V6.1645H61.9859V13.327C61.9859 13.7692 62.0772 14.1524 62.26 14.4766C62.458 14.8008 62.7322 15.0587 63.0825 15.2503C63.4328 15.4272 63.8288 15.5156 64.2705 15.5156C64.7274 15.5156 65.1234 15.4272 65.4585 15.2503C65.8088 15.0587 66.0754 14.8008 66.2582 14.4766C66.4562 14.1524 66.5552 13.7692 66.5552 13.327V6.1645H69.9821V13.3934C69.9821 14.4103 69.7385 15.3019 69.2511 16.0683C68.7789 16.8346 68.1163 17.4315 67.2634 17.8589C66.4105 18.2863 65.4128 18.5 64.2705 18.5Z" stroke="black" stroke-width="2" mask="url(#path-1-outside-1_5060_37)"/>
<path d="M71.573 18.2347V6.1645H75V18.2347H71.573ZM71.573 5.08127V1.76528H75V5.08127H71.573Z" stroke="black" stroke-width="2" mask="url(#path-1-outside-1_5060_37)"/>
</g>
<defs>
<filter id="filter0_d_5060_37" x="0.759033" y="0.5" width="79.241" height="27" filterUnits="userSpaceOnUse" color-interpolation-filters="sRGB">
<feFlood flood-opacity="0" result="BackgroundImageFix"/>
<feColorMatrix in="SourceAlpha" type="matrix" values="0 0 0 0 0 0 0 0 0 0 0 0 0 0 0 0 0 0 127 0" result="hardAlpha"/>
<feOffset dy="4"/>
<feGaussianBlur stdDeviation="2"/>
<feComposite in2="hardAlpha" operator="out"/>
<feColorMatrix type="matrix" values="0 0 0 0 0 0 0 0 0 0 0 0 0 0 0 0 0 0 0.25 0"/>
<feBlend mode="normal" in2="BackgroundImageFix" result="effect1_dropShadow_5060_37"/>
<feBlend mode="normal" in="SourceGraphic" in2="effect1_dropShadow_5060_37" result="shape"/>
</filter>
</defs>
</svg>
