<svg width="19" height="18" viewBox="0 0 19 18" fill="none" xmlns="http://www.w3.org/2000/svg">
<path d="M17.9705 7.97274L14.4549 11.0063L15.526 15.5431C15.585 15.7893 15.5698 16.0476 15.4822 16.2852C15.3946 16.5229 15.2385 16.7292 15.0337 16.8782C14.8289 17.0272 14.5845 17.1121 14.3315 17.1222C14.0784 17.1324 13.828 17.0673 13.6119 16.9352L9.66658 14.5071L5.71892 16.9352C5.50285 17.0666 5.25275 17.131 5.00012 17.1205C4.74749 17.11 4.50363 17.0249 4.29924 16.8761C4.09484 16.7272 3.93906 16.5212 3.8515 16.284C3.76395 16.0468 3.74853 15.789 3.8072 15.5431L4.8822 11.0063L1.36658 7.97274C1.1754 7.80752 1.03714 7.58963 0.969064 7.34629C0.900984 7.10296 0.906101 6.84496 0.983777 6.60452C1.06145 6.36407 1.20824 6.15184 1.40582 5.99432C1.60339 5.83681 1.843 5.74099 2.0947 5.71884L6.70408 5.34696L8.4822 1.04384C8.57845 0.809319 8.74226 0.608718 8.9528 0.467538C9.16335 0.326358 9.41113 0.250977 9.66462 0.250977C9.91812 0.250977 10.1659 0.326358 10.3764 0.467538C10.587 0.608718 10.7508 0.809319 10.847 1.04384L12.6244 5.34696L17.2338 5.71884C17.486 5.74017 17.7263 5.83545 17.9246 5.99275C18.1229 6.15005 18.2703 6.36236 18.3485 6.6031C18.4266 6.84383 18.432 7.10228 18.3639 7.34606C18.2959 7.58984 18.1574 7.80811 17.9658 7.97352L17.9705 7.97274Z" fill="#F59E0B"/>
</svg>
